<?xml version="1.0" encoding="utf-8"?>
<!-- Generator: Adobe Illustrator 23.0.0, SVG Export Plug-In . SVG Version: 6.00 Build 0)  -->
<svg version="1.1" id="Layer_1" xmlns="http://www.w3.org/2000/svg" xmlns:xlink="http://www.w3.org/1999/xlink" x="0px" y="0px"
	 viewBox="0 0 979.8 982" style="enable-background:new 0 0 979.8 982;" xml:space="preserve">
<style type="text/css">
	.st0{fill:#0C2D48;}
	.st1{clip-path:url(#SVGID_2_);}
	.st2{fill:url(#SVGID_3_);}
	.st3{fill:#DAA16A;}
	.st4{clip-path:url(#SVGID_5_);}
	.st5{fill:url(#SVGID_6_);}
	.st6{clip-path:url(#SVGID_8_);}
	.st7{fill:url(#SVGID_9_);}
	.st8{clip-path:url(#SVGID_11_);}
	.st9{fill:url(#SVGID_12_);}
	.st10{clip-path:url(#SVGID_14_);}
	.st11{fill:url(#SVGID_15_);}
	.st12{clip-path:url(#SVGID_17_);}
	.st13{fill:url(#SVGID_18_);}
	.st14{clip-path:url(#SVGID_20_);}
	.st15{fill:url(#SVGID_21_);}
	.st16{clip-path:url(#SVGID_23_);}
	.st17{fill:url(#SVGID_24_);}
	.st18{clip-path:url(#SVGID_26_);}
	.st19{fill:url(#SVGID_27_);}
	.st20{clip-path:url(#SVGID_29_);}
	.st21{fill:url(#SVGID_30_);}
	.st22{clip-path:url(#SVGID_32_);}
	.st23{fill:url(#SVGID_33_);}
</style>
<title>favicon</title>
<g>
	<path class="st0" d="M115.2,285.7c0,0,322.5-186,737-1.7C915.7,785.7,489,956.1,489,956.1S41.7,765.2,115.2,285.7"/>
	<g>
		<defs>
			<path id="SVGID_1_" d="M283.2,791.2C151.8,652.9,99.2,485.7,126.9,294c19.8-10.3,93.8-46.1,203.6-65.6
				C448.4,207.5,632,202,840.4,292.8c23.7,200.6-28.3,370.7-154.6,505.8c-83.9,89.8-174.9,133.7-196.7,143.4
				C466.8,931.5,370.8,883.4,283.2,791.2 M326.1,203.1c-133.1,23.6-213.9,69.5-217.1,71.5l-5.3,3.2l-0.9,6.1
				c-17.1,111.5-7.7,217.1,28,313.4c28.5,77.1,73.9,148.6,134.7,212.3C368.6,918,479.3,966.2,484.1,968l4.9,2.1l4.9-1.9
				c4.5-1.8,110.5-44.9,210-151c57.6-61,102-133.2,130.4-212.1c35.1-97.6,45.4-206.1,30.6-322.5l-0.9-7.2l-6.6-2.9
				c-141.3-62.9-271.8-82.5-379.6-82.5C427,189.9,376.2,194.3,326.1,203.1"/>
		</defs>
		<clipPath id="SVGID_2_">
			<use xlink:href="#SVGID_1_"  style="overflow:visible;"/>
		</clipPath>
		<g class="st1">
			
				<linearGradient id="SVGID_3_" gradientUnits="userSpaceOnUse" x1="1121.8517" y1="-48.9459" x2="1124.7574" y2="-48.9459" gradientTransform="matrix(269.01 0 0 269.01 -301694.9375 13746.8643)">
				<stop  offset="0" style="stop-color:#E2B885"/>
				<stop  offset="1" style="stop-color:#9A6940"/>
			</linearGradient>
			<rect x="85.5" y="189.9" class="st2" width="794.2" height="780"/>
		</g>
	</g>
	<polygon class="st3" points="491.2,12 507.3,61.6 559.5,61.6 517.3,92.3 533.4,141.9 491.2,111.2 449,141.9 465.1,92.3 422.9,61.6 
		475.1,61.6 	"/>
	<polygon class="st3" points="663,60.6 673.8,93.7 708.6,93.7 680.4,114.2 691.2,147.3 663,126.8 634.8,147.3 645.6,114.2 
		617.4,93.7 652.2,93.7 	"/>
	<polygon class="st3" points="829.2,108.4 840,141.5 874.8,141.5 846.7,162 857.4,195.1 829.2,174.7 801.1,195.1 811.8,162 
		783.6,141.5 818.5,141.5 	"/>
	<polygon class="st3" points="136.5,108.4 147.3,141.5 182.1,141.5 153.9,162 164.7,195.1 136.5,174.7 108.3,195.1 119.1,162 
		90.9,141.5 125.7,141.5 	"/>
	<polygon class="st3" points="302.7,60.6 313.5,93.7 348.3,93.7 320.1,114.2 330.9,147.3 302.7,126.8 274.6,147.3 285.3,114.2 
		257.1,93.7 292,93.7 	"/>
	<g>
		<defs>
			<path id="SVGID_4_" d="M387.1,342.7l19.8,56.2l4.4-1.8c0,0,0.3-1.8-16.1-44c41.3,20.1,62.8-3,88.3-29.3
				c48.6,61.9,89.4,29.3,89.4,29.3l-16.6,46l6.4,2.7c0,0,2.4-7.2,17.3-58c-63.1,26.6-87.3-27.2-96.3-39.5
				c-39.1,76.9-96.6,38.3-96.6,38.3"/>
		</defs>
		<clipPath id="SVGID_5_">
			<use xlink:href="#SVGID_4_"  style="overflow:visible;"/>
		</clipPath>
		<g class="st4">
			
				<linearGradient id="SVGID_6_" gradientUnits="userSpaceOnUse" x1="1101.6678" y1="-50.6144" x2="1104.5737" y2="-50.6144" gradientTransform="matrix(66.76 0 0 66.76 -73150.8594 3732.1458)">
				<stop  offset="0" style="stop-color:#9A6940"/>
				<stop  offset="1" style="stop-color:#E2B885"/>
			</linearGradient>
			<rect x="387.2" y="304.4" class="st5" width="192.8" height="97.5"/>
		</g>
	</g>
	<g>
		<defs>
			<path id="SVGID_7_" d="M392.9,333.4c0,0-4.5-3-3.9,0.9c49.9,33.2,78-11.9,94.6-46.6c39.3,93.6,94.9,46.9,94.9,46.9
				s-1.8-0.6-4.5-1.2c-58.9,16.4-75.6-37.1-90.5-61.9C449.1,357.9,392.9,333.4,392.9,333.4"/>
		</defs>
		<clipPath id="SVGID_8_">
			<use xlink:href="#SVGID_7_"  style="overflow:visible;"/>
		</clipPath>
		<g class="st6">
			
				<linearGradient id="SVGID_9_" gradientUnits="userSpaceOnUse" x1="1101.2141" y1="-50.8221" x2="1104.088" y2="-50.8221" gradientTransform="matrix(65.64 0 0 65.64 -71885.5625 3662.345)">
				<stop  offset="0" style="stop-color:#9A6940"/>
				<stop  offset="1" style="stop-color:#E2B885"/>
			</linearGradient>
			<rect x="388.4" y="271.5" class="st7" width="190.2" height="109.7"/>
		</g>
	</g>
	<g>
		<defs>
			<path id="SVGID_10_" d="M378.1,326.7c0,5,4,9.1,9,9.1c5,0,9.1-4,9.1-9c0-5-4-9.1-9-9.1c-0.1,0-0.1,0-0.2,0c-5,0-9.1,4.1-9.1,9.1"
				/>
		</defs>
		<clipPath id="SVGID_11_">
			<use xlink:href="#SVGID_10_"  style="overflow:visible;"/>
		</clipPath>
		<g class="st8">
			
				<linearGradient id="SVGID_12_" gradientUnits="userSpaceOnUse" x1="832.0312" y1="-68.3098" x2="834.937" y2="-68.3098" gradientTransform="matrix(6.28 0 0 6.28 -4844.0137 755.6418)">
				<stop  offset="0" style="stop-color:#9A6940"/>
				<stop  offset="1" style="stop-color:#E2B885"/>
			</linearGradient>
			<rect x="378.1" y="317.6" class="st9" width="18.1" height="18.1"/>
		</g>
	</g>
	<g>
		<defs>
			<path id="SVGID_13_" d="M569.5,326.7c0,5,4,9.1,9,9.1c5,0,9.1-4,9.1-9c0-5-4-9-8.9-9.1c-5,0-9.1,4.1-9.1,9.1"/>
		</defs>
		<clipPath id="SVGID_14_">
			<use xlink:href="#SVGID_13_"  style="overflow:visible;"/>
		</clipPath>
		<g class="st10">
			
				<linearGradient id="SVGID_15_" gradientUnits="userSpaceOnUse" x1="851.971" y1="-68.3098" x2="854.845" y2="-68.3098" gradientTransform="matrix(6.28 0 0 6.28 -4777.7739 755.6418)">
				<stop  offset="0" style="stop-color:#9A6940"/>
				<stop  offset="1" style="stop-color:#E2B885"/>
			</linearGradient>
			<rect x="569.5" y="317.6" class="st11" width="18.1" height="18.1"/>
		</g>
	</g>
	<g>
		<defs>
			<path id="SVGID_16_" d="M474.6,263.4c0,5,4.1,9.1,9.1,9.1s9.1-4.1,9.1-9.1c0-5-4.1-9.1-9.1-9.1l0,0
				C478.7,254.3,474.6,258.4,474.6,263.4"/>
		</defs>
		<clipPath id="SVGID_17_">
			<use xlink:href="#SVGID_16_"  style="overflow:visible;"/>
		</clipPath>
		<g class="st12">
			
				<linearGradient id="SVGID_18_" gradientUnits="userSpaceOnUse" x1="842.074" y1="-74.8864" x2="844.9798" y2="-74.8864" gradientTransform="matrix(6.28 0 0 6.28 -4810.5938 733.782)">
				<stop  offset="0" style="stop-color:#9A6940"/>
				<stop  offset="1" style="stop-color:#E2B885"/>
			</linearGradient>
			<rect x="474.6" y="254.4" class="st13" width="18.1" height="18.1"/>
		</g>
	</g>
	<g>
		<defs>
			<path id="SVGID_19_" d="M430.3,373.1c0,4,3.2,7.2,7.2,7.2c4,0,7.2-3.2,7.2-7.2c0-4-3.2-7.2-7.2-7.2
				C433.5,365.9,430.3,369.2,430.3,373.1L430.3,373.1"/>
		</defs>
		<clipPath id="SVGID_20_">
			<use xlink:href="#SVGID_19_"  style="overflow:visible;"/>
		</clipPath>
		<g class="st14">
			
				<linearGradient id="SVGID_21_" gradientUnits="userSpaceOnUse" x1="762.3807" y1="-66.6207" x2="765.2545" y2="-66.6207" gradientTransform="matrix(4.99 0 0 4.99 -3367.073 705.5704)">
				<stop  offset="0" style="stop-color:#9A6940"/>
				<stop  offset="1" style="stop-color:#E2B885"/>
			</linearGradient>
			<rect x="430.3" y="365.9" class="st15" width="14.4" height="14.4"/>
		</g>
	</g>
	<g>
		<defs>
			<path id="SVGID_22_" d="M523,373.1c0,4,3.2,7.2,7.2,7.2c4,0,7.2-3.2,7.2-7.2c0-4-3.2-7.2-7.2-7.2
				C526.2,365.9,523,369.2,523,373.1L523,373.1"/>
		</defs>
		<clipPath id="SVGID_23_">
			<use xlink:href="#SVGID_22_"  style="overflow:visible;"/>
		</clipPath>
		<g class="st16">
			
				<linearGradient id="SVGID_24_" gradientUnits="userSpaceOnUse" x1="774.5049" y1="-66.6207" x2="777.4106" y2="-66.6207" gradientTransform="matrix(4.99 0 0 4.99 -3334.9829 705.5704)">
				<stop  offset="0" style="stop-color:#9A6940"/>
				<stop  offset="1" style="stop-color:#E2B885"/>
			</linearGradient>
			<rect x="523" y="365.9" class="st17" width="14.4" height="14.4"/>
		</g>
	</g>
	<g>
		<defs>
			<path id="SVGID_25_" d="M473.9,375.5c0,5.5,4.4,9.9,9.9,9.9c5.5,0,9.9-4.4,9.9-9.9c0-5.5-4.4-9.9-9.9-9.9
				C478.4,365.6,473.9,370.1,473.9,375.5L473.9,375.5"/>
		</defs>
		<clipPath id="SVGID_26_">
			<use xlink:href="#SVGID_25_"  style="overflow:visible;"/>
		</clipPath>
		<g class="st18">
			
				<linearGradient id="SVGID_27_" gradientUnits="userSpaceOnUse" x1="865.0812" y1="-62.9566" x2="867.955" y2="-62.9566" gradientTransform="matrix(6.85 0 0 6.85 -5458.7085 806.7651)">
				<stop  offset="0" style="stop-color:#9A6940"/>
				<stop  offset="1" style="stop-color:#E2B885"/>
			</linearGradient>
			<rect x="473.9" y="365.6" class="st19" width="19.8" height="19.8"/>
		</g>
	</g>
	<g>
		<defs>
			<polygon id="SVGID_28_" points="465.4,377.3 483.7,351.5 501.4,377.3 483.7,337.4 			"/>
		</defs>
		<clipPath id="SVGID_29_">
			<use xlink:href="#SVGID_28_"  style="overflow:visible;"/>
		</clipPath>
		<g class="st20">
			
				<linearGradient id="SVGID_30_" gradientUnits="userSpaceOnUse" x1="983.7752" y1="-57.5352" x2="986.6489" y2="-57.5352" gradientTransform="matrix(12.46 0 0 12.46 -11797.0049 1074.2637)">
				<stop  offset="0" style="stop-color:#9A6940"/>
				<stop  offset="1" style="stop-color:#E2B885"/>
			</linearGradient>
			<rect x="465.4" y="337.4" class="st21" width="36" height="39.9"/>
		</g>
	</g>
	<g>
		<defs>
			<path id="SVGID_31_" d="M503.3,723.4c-5.6,6.4-18.6,6.1-18.6,6.1h-0.9c0,0-13,0.4-18.6-6.1c-5.6-6.5-11.2-11.2-18.1-2
				c13.7,3.2,21.2,7.6,27.3,22.4c-4.3-4.2-7.2-8.5-14.4-9.2c3.4,6.4,8.7,20.7,23.9,20.3h0.6c15.2,0.4,20.6-14,23.9-20.3
				c-7.2,0.7-10.1,5-14.4,9.2c6.1-14.6,13.6-19.2,27.3-22.4c-1.6-2.9-4.5-4.8-7.8-5.1C510,716.3,506.7,719.5,503.3,723.4
				 M395.2,577.3c12.5,8.4,30.8-8.3,17.4-14.7c-2.7,8.8-14.9,8.8-13,2.2c2.3-1.8,2.7-5.1,0.9-7.4c-0.4-0.5-0.8-0.9-1.3-1.2
				c-0.5-0.4-1.2-0.6-1.9-0.6C391.6,555.6,384,569.8,395.2,577.3 M569.3,556.1c-2.5,1.6-3.2,4.8-1.6,7.3c0.3,0.5,0.7,1,1.2,1.3
				c2,6.6-10.3,6.6-13-2.2c-13.4,6.4,4.9,23.1,17.4,14.7c11.2-7.5,3.5-21.7-2.1-21.7C570.5,555.6,569.9,555.8,569.3,556.1
				 M527.6,746.8c0,0,28.3-10.1,37.5-19.6c9.1-9.6,17.5-35.4-20.3-58.9c33.4,6.4,40.8,49.1,40.8,49.1s3.9,69-54.1,81.4
				c-10,2.4-20.6,1.7-30.2-2c-5.5-2.4-11.4-3.5-17.3-3.4l0,0c-6-0.1-11.9,1-17.3,3.4c-9.6,3.8-20.1,4.5-30.2,2
				c-58-12.4-54.1-81.4-54.1-81.4s7.4-42.8,40.8-49.1c-37.8,23.4-29.4,49.3-20.3,58.9c9.1,9.6,37.5,19.6,37.5,19.6
				s-28.3,4.9-45.2-11.2c0.4,5,1.3,10,2.7,14.9c19.6,5,23.3,9.9,45.2,10.8c-12.8,5.2-40.4,1.3-40.4,1.3s12.5,12.6,47.9,7.9
				c-2.5,4.7-25.8,7.2-38.3,5.6c5,6.4,10.7,15.1,47.2,2.7c-0.4,3.4-23.3,12.4-23.3,12.4s14.8,4.7,26.3,0s6.4-6.4,12.3-7.7
				s1.8-24.8,1.8-24.8s-14.4-3.4-18.9-13.1s-41.5-18.1-21.2-51.1c-1.3,13.2-2.2,19.5,7.4,24.9c3.6-5.6,6.1-9.6,16.7-7.2
				s6.2,9,23.3,9.6l0,0c17.2-0.5,12.8-7,23.3-9.6c10.6-2.6,13.1,1.6,16.7,7.2c9.6-5.4,8.8-11.7,7.4-24.9
				c20.3,33-16.7,41.4-21.2,51.1c-4.5,9.7-18.9,13.1-18.9,13.1s-4.1,23.4,1.8,24.8c5.8,1.3,0.8,2.9,12.3,7.7c11.5,4.8,26.3,0,26.3,0
				s-22.8-9-23.3-12.4c36.5,12.4,42.2,3.6,47.1-2.7c-12.8,1.6-35.9-0.9-38.3-5.6c35.6,4.7,48.1-7.9,48.1-7.9s-27.8,3.8-40.4-1.3
				c21.9-0.9,25.5-5.7,45.2-10.8c1.4-4.9,2.3-9.8,2.7-14.9c-10.5,10.1-25.4,11.9-35.1,11.9C534.2,747.6,530.8,747.3,527.6,746.8
				 M343.5,603.5c1.2-12.5,10.2-40.3,10.2-40.3s-8.2,40.9,5.7,45.3s33.6-3.9,51.5,12.4c-29.5-5.2-37.7-4.8-57.2,1.6
				c-2,0.9-4.1,1.4-6.2,1.6C340.2,624,342.5,613.8,343.5,603.5 M387.1,593.6c-14.3-5.1-20.7-30.4-20.7-30.4
				c4.8,10.3,12.8,18.8,22.9,24.1c17.4,9.6,29.8,12.3,33.3,27.7C412.6,603.5,401.4,598.7,387.1,593.6 M579.4,587.3
				c10.1-5.3,18.1-13.8,22.9-24.1c0,0-6.4,25.3-20.8,30.4c-14.4,5.1-25.5,9.9-35.5,21.5C549.6,599.6,562,596.8,579.4,587.3
				 M609,608.4c14-4.4,5.7-45.3,5.7-45.3s9.1,27.7,10.3,40.3c1.2,12.5,4.4,25-10.3,19c-19.4-6.4-27.7-6.8-57.2-1.6
				C575.5,604.5,595.1,612.8,609,608.4 M385.5,565.9c-0.2-4.9-6.6-5.5-12.5-5.7c0,0,16-11.9,23.7-11s32.3,7.1,39.1,29.2
				c5.8,19.3,6.4,29.9,5.6,32.8c-0.8,2.9-15.3,41-15.3,41l7.9-55.8c0,0-2-8.3-4.6-11c-4.7,0.9-9.4,1.4-14.1,1.3
				C402.3,586.8,385.7,583.2,385.5,565.9 M527,611.4c-0.9-2.9,0-11.4,5.7-32.8c6.8-22.2,31.4-28.4,39.1-29.2
				c7.7-0.9,23.7,11,23.7,11c-5.9,0.2-12.3,0.9-12.5,5.7c-0.2,25.7-36.7,21.1-44,19.5c-2.6,2.7-4.6,11-4.6,11l7.9,55.8
				C542.3,652.4,527.9,614.3,527,611.4 M370.5,531.9c3.2-13.4,21.7-30.6,35.6-39.5c0,0-16,18-16.3,21.6c-0.3,3.6-3.6,6.1,6.7,13.2
				c10.4,7,22.9,17.4,25.3,14c2.4-3.4,3.2-15.1,3.2-15.1s5.3,33.7,13.1,43.4C425.3,553.5,421.2,535.5,370.5,531.9 M572.1,527.2
				c10.4-7,7.1-9.6,6.8-13.2c-0.4-3.6-16.3-21.6-16.3-21.6c13.9,8.9,32.4,26.2,35.6,39.5c-50.6,3.6-54.7,21.7-67.6,37.6
				c7.8-9.7,13.1-43.4,13.1-43.4s0.9,11.7,3.2,15.1c0.3,0.5,0.9,0.7,1.5,0.7C552.5,541.8,563.1,533.2,572.1,527.2 M319.6,654.9
				c-3.7-29.8-5.9-59.7-6.6-89.8c0.3-16.8,7.3-34.2,50.8-79.2c0,0-16.9,32.9-15,42.4s15,17.1,15,17.1s-23.8-7.1-30.6,2.4
				s-7.9,33.7-6.4,66.3c1.8,13.2,8.7,17.7,27.6,26.1c11.2,5,22.8,8.9,34.7,11.6c0,0-40.3-0.5-50.5-7.6c-4.5,4.5-4.8,26.6,23.2,47.9
				c-10.3-2.9-39.5-17.9-42.4-37.1 M619.8,528.3c1.8-9.6-15-42.4-15-42.4c43.5,45,50.5,62.4,50.8,79.2c0.3,16.8-3.7,70.5-6.6,89.8
				c-2.9,19.2-32.1,34.1-42.4,37c27.9-21.3,27.6-43.4,23.2-47.9c-10.3,7.1-50.5,7.6-50.5,7.6c11.9-2.7,23.6-6.5,34.8-11.5
				c18.9-8.4,25.8-12.8,27.6-26.1c1.6-32.6,0.5-56.8-6.4-66.3s-30.6-2.4-30.6-2.4s13.2-7.6,15-17.1 M304.8,705.7
				c-2.6-1.5-3.6-4.9-2.6-12.8c1.1-7.9-8.7-22.1-13.1-26.6c-6.1-5.4-8.5-13.9-6.2-21.7c2.6-11.6-2.5-53.5-6.9-74
				c-4.4-20.5,14.9-55.1,21.6-68.9c6.7-13.8,57.1-43,57.1-43s-11.6,9.4-44.7,50.1c-37.1,57.5-7.3,160.8,8,187.8s31.6,20.5,31.6,20.5
				l15.1,23.7c-17-14.8-29.8-14.2-38.5-1.8c-3-23.5-18.8-31.9-21.4-33.4 M647.9,696.7c15.3-26.9,45-130.2,8-187.8
				c-33-40.8-44.7-50.1-44.7-50.1s50.6,29.2,57.1,43c6.5,13.8,25.8,48.5,21.4,68.9c-4.3,20.5-9.6,62.4-6.9,74
				c2.3,7.8-0.1,16.3-6.2,21.7c-4.3,4.5-14.1,18.7-13.1,26.6c1.1,7.9,0,11.2-2.6,12.8c-2.6,1.6-18.5,9.9-21.5,33.4
				c-8.7-12.4-21.6-13-38.6,1.8l15.2-23.7c1.5,0.5,3,0.7,4.5,0.7c5.9,0,16.8-3,27.1-21.2 M574,430c-24.6-7.3-50-11.7-75.6-13.1
				l0.6,17.7c0,0,56.5-0.7,96.4,27.6c-70.6-14.8-98.3-14.4-98.3-14.4v16.5c17.3,1.5,34.2,6.4,49.7,14.3c-29.7-3.9-65.3-10-126,0
				c18.7-9.1,36.2-14.8,52.3-15.2l-0.6-16.5c0,0-68.5,3-99.5,16.5c14.8-15.2,50.4-25.5,99-30.9l-1.3-16.5
				c-27.1,0.5-53.9,5.2-79.5,13.9c0,0,86.6-58.7,182.9,0 M642.5,411.1c-14.2,6.1-27.1,8.4-32.7,6c-30.3-12.8-54-20.9-74.3-24.3
				c-17-2.3-34.2-1.9-51.1,1.3c-17.6-4.6-36.1-5-54-1.3c-20.2,3.6-43.9,11.6-74.3,24.3c-5.6,2.3-18.4,0-32.7-6
				c-15.6-6.5-29.6-16.3-41.1-28.7c-17.5,34.4-16.8,62.2-11.7,81.4c2.5,10.8,7.4,20.9,14.1,29.6c0,0-44.7,46.3-23.9,165.2l19.6-36.6
				c0,0-26.2,62.5,29.4,128.6l-3.9-39.4c0,0,8.9,41.7,63.3,88.2c-1.9-29.6-3.2-33.6-3.2-33.6s30.3,25.5,34.9,60.4
				c7.9-11.2,2.8-16.8,2.8-16.8s15.3,10.7,10.2,28.7c6.1-4.1,10-10.7,10.7-18c6.8,10.8,15.5,20.2,25.7,27.8
				c-1.2-5.5-2.7-11-4.4-16.4c0.8,1.2,12.5,12.5,18.6,14.8l7.7-12.3l14.3,21.3l13-21c2.7,4.6,6.3,8.7,10.5,12l9.6-15
				c0,0,1.6,1.7-1.6,16.6C536.4,833.7,541,820,541,820c0.7,7.3,4.7,13.9,10.7,18c-5.1-18,10.2-28.7,10.2-28.7s-5.1,5.6,2.8,16.8
				c4.5-34.9,34.9-60.4,34.9-60.4s-1.3,4-3.2,33.6c54.3-46.6,63.3-88.2,63.3-88.2l-3.9,39.4c55.6-66.1,29.4-128.6,29.4-128.6
				l19.6,36.6c20.9-119-24-165.2-24-165.2c6.9-8.7,11.8-18.9,14.5-29.7c5.1-19.2,5.8-46.9-11.7-81.4
				C672.1,394.6,658.1,404.4,642.5,411.1"/>
		</defs>
		<clipPath id="SVGID_32_">
			<use xlink:href="#SVGID_31_"  style="overflow:visible;"/>
		</clipPath>
		<g class="st22">
			
				<linearGradient id="SVGID_33_" gradientUnits="userSpaceOnUse" x1="1117.1117" y1="-48.705" x2="1120.0176" y2="-48.705" gradientTransform="matrix(157.47 0 0 157.47 -175655.4531 8282.75)">
				<stop  offset="0" style="stop-color:#9A6940"/>
				<stop  offset="1" style="stop-color:#E2B885"/>
			</linearGradient>
			<rect x="240" y="371.2" class="st23" width="485.7" height="483.9"/>
		</g>
	</g>
</g>
</svg>
