<svg id="Layer_1" data-name="Layer 1" xmlns="http://www.w3.org/2000/svg" xmlns:xlink="http://www.w3.org/1999/xlink" viewBox="0 0 706.34 140.97"><defs><style>.cls-1{fill:none;}.cls-2{fill:#daa16a;}.cls-3{fill:#0c2d48;}.cls-4{clip-path:url(#clip-path);}.cls-5{fill:url(#linear-gradient);}.cls-6{clip-path:url(#clip-path-2);}.cls-7{fill:url(#linear-gradient-2);}.cls-8{clip-path:url(#clip-path-3);}.cls-9{fill:url(#linear-gradient-3);}.cls-10{clip-path:url(#clip-path-4);}.cls-11{fill:url(#linear-gradient-4);}.cls-12{clip-path:url(#clip-path-5);}.cls-13{fill:url(#linear-gradient-5);}.cls-14{clip-path:url(#clip-path-6);}.cls-15{fill:url(#linear-gradient-6);}.cls-16{clip-path:url(#clip-path-7);}.cls-17{fill:url(#linear-gradient-7);}.cls-18{clip-path:url(#clip-path-8);}.cls-19{fill:url(#linear-gradient-8);}.cls-20{clip-path:url(#clip-path-9);}.cls-21{fill:url(#linear-gradient-9);}.cls-22{clip-path:url(#clip-path-10);}.cls-23{fill:url(#linear-gradient-10);}.cls-24{clip-path:url(#clip-path-11);}.cls-25{fill:url(#linear-gradient-11);}</style><clipPath id="clip-path" transform="translate(0.8)"><path class="cls-1" d="M28.29,114.67C9,94.33,1.23,69.71,5.31,41.49a108,108,0,0,1,30-9.65c17.34-3.07,44.36-3.88,75,9.49,3.48,29.51-4.17,54.55-22.76,74.43A95,95,0,0,1,58.6,136.87a107.68,107.68,0,0,1-30.31-22.2m6.32-86.54C15,31.6,3.14,38.36,2.64,38.65l-.79.45-.13.9C-.8,56.41.59,71.93,5.84,86.12a91,91,0,0,0,19.82,31.25,107.5,107.5,0,0,0,32.18,23.3l.72.3.72-.28c.66-.27,16.26-6.61,30.91-22.23A89.84,89.84,0,0,0,109.4,87.27c5.16-14.36,6.68-30.34,4.51-47.47l-.14-1.06-1-.43A136.67,136.67,0,0,0,57,26.19a128.83,128.83,0,0,0-22.34,1.94"/></clipPath><linearGradient id="linear-gradient" x1="-422.03" y1="578.05" x2="-421.6" y2="578.05" gradientTransform="matrix(269.01, 0, 0, -269.01, 113531.03, 155584.59)" gradientUnits="userSpaceOnUse"><stop offset="0" stop-color="#e2b885"/><stop offset="1" stop-color="#9a6940"/></linearGradient><clipPath id="clip-path-2" transform="translate(0.8)"><path class="cls-1" d="M43.6,48.66l2.92,8.28.65-.27s0-.26-2.38-6.47c6.07,2.95,9.24-.44,13-4.31C64.94,55,70.93,50.2,70.93,50.2L68.51,57l.92.39s.35-1,2.55-8.53c-9.28,3.92-12.85-4-14.17-5.81C52.05,54.34,43.6,48.66,43.6,48.66"/></clipPath><linearGradient id="linear-gradient-2" x1="-422.03" y1="577.15" x2="-421.61" y2="577.15" gradientTransform="matrix(66.76, 0, 0, -66.76, 28217.16, 38578.14)" gradientUnits="userSpaceOnUse"><stop offset="0" stop-color="#9a6940"/><stop offset="1" stop-color="#e2b885"/></linearGradient><clipPath id="clip-path-3" transform="translate(0.8)"><path class="cls-1" d="M44.44,47.3s-.66-.44-.57.13c7.34,4.88,11.48-1.76,13.92-6.86,5.79,13.77,14,6.9,14,6.9s-.26-.08-.66-.17C62.44,49.72,60,41.84,57.79,38.19,52.71,50.91,44.44,47.3,44.44,47.3"/></clipPath><linearGradient id="linear-gradient-3" x1="-422.03" y1="576.96" x2="-421.61" y2="576.96" gradientTransform="matrix(65.64, 0, 0, -65.64, 27744.99, 37915.63)" xlink:href="#linear-gradient-2"/><clipPath id="clip-path-4" transform="translate(0.8)"><path class="cls-1" d="M42.27,46.31A1.34,1.34,0,1,0,43.6,45a1.33,1.33,0,0,0-1.33,1.34"/></clipPath><linearGradient id="linear-gradient-4" x1="-419" y1="566.96" x2="-418.57" y2="566.96" gradientTransform="matrix(6.28, 0, 0, -6.28, 2673.53, 3605.71)" xlink:href="#linear-gradient-2"/><clipPath id="clip-path-5" transform="translate(0.8)"><path class="cls-1" d="M70.43,46.31A1.34,1.34,0,1,0,71.76,45a1.33,1.33,0,0,0-1.33,1.34"/></clipPath><linearGradient id="linear-gradient-5" x1="-425.06" y1="566.96" x2="-424.64" y2="566.96" gradientTransform="matrix(6.28, 0, 0, -6.28, 2739.76, 3605.71)" xlink:href="#linear-gradient-2"/><clipPath id="clip-path-6" transform="translate(0.8)"><path class="cls-1" d="M56.48,37a1.34,1.34,0,1,0,1.33-1.33A1.33,1.33,0,0,0,56.48,37"/></clipPath><linearGradient id="linear-gradient-6" x1="-422.06" y1="564.96" x2="-421.63" y2="564.96" gradientTransform="matrix(6.28, 0, 0, -6.28, 2706.95, 3583.84)" xlink:href="#linear-gradient-2"/><clipPath id="clip-path-7" transform="translate(0.8)"><path class="cls-1" d="M50,53.15A1.06,1.06,0,1,0,51,52.09,1.06,1.06,0,0,0,50,53.15"/></clipPath><linearGradient id="linear-gradient-7" x1="-420.22" y1="565.92" x2="-419.79" y2="565.92" gradientTransform="matrix(4.99, 0, 0, -4.99, 2145.57, 2874.32)" xlink:href="#linear-gradient-2"/><clipPath id="clip-path-8" transform="translate(0.8)"><path class="cls-1" d="M63.59,53.15a1.06,1.06,0,0,0,2.12,0,1.06,1.06,0,1,0-2.12,0"/></clipPath><linearGradient id="linear-gradient-8" x1="-423.92" y1="565.92" x2="-423.49" y2="565.92" gradientTransform="matrix(4.99, 0, 0, -4.99, 2177.66, 2874.32)" xlink:href="#linear-gradient-2"/><clipPath id="clip-path-9" transform="translate(0.8)"><path class="cls-1" d="M56.37,53.5A1.46,1.46,0,1,0,57.83,52a1.46,1.46,0,0,0-1.46,1.46"/></clipPath><linearGradient id="linear-gradient-9" x1="-422.06" y1="569.32" x2="-421.63" y2="569.32" gradientTransform="matrix(6.85, 0, 0, -6.85, 2950.16, 3955.89)" xlink:href="#linear-gradient-2"/><clipPath id="clip-path-10" transform="translate(0.8)"><polygon class="cls-1" points="55.11 53.76 57.81 49.97 60.41 53.76 57.81 47.89 55.11 53.76"/></clipPath><linearGradient id="linear-gradient-10" x1="-422.04" y1="572.99" x2="-421.61" y2="572.99" gradientTransform="matrix(12.46, 0, 0, -12.46, 5315.63, 7191.85)" xlink:href="#linear-gradient-2"/><clipPath id="clip-path-11" transform="translate(0.8)"><path class="cls-1" d="M60.7,104.7c-.83,1-2.75.89-2.75.89h-.13s-1.91.07-2.74-.89-1.64-1.65-2.66-.3a4.81,4.81,0,0,1,4,3.28c-.63-.63-1.06-1.26-2.12-1.36.5.93,1.28,3.05,3.52,3h.1c2.24.07,3-2,3.52-3-1.06.1-1.49.73-2.12,1.36a4.81,4.81,0,0,1,4-3.28,1.53,1.53,0,0,0-1.14-.76c-.54,0-1,.48-1.52,1.06M44.78,83.19C46.63,84.41,49.31,82,47.34,81c-.39,1.29-2.2,1.29-1.91.32a.77.77,0,0,0-.07-1.26.44.44,0,0,0-.27-.09c-.83,0-2,2.09-.31,3.2m25.63-3.11a.77.77,0,0,0-.07,1.26c.29,1-1.52,1-1.9-.32-2,.94.71,3.39,2.55,2.17,1.65-1.11.52-3.2-.31-3.2a.44.44,0,0,0-.27.09m-6.16,28.06s4.17-1.48,5.51-2.89,2.58-5.21-3-8.66c4.92.93,6,7.23,6,7.23s.57,10.15-8,12a7.31,7.31,0,0,1-4.44-.3,6,6,0,0,0-2.55-.49h0a6.07,6.07,0,0,0-2.55.49,7.31,7.31,0,0,1-4.44.3c-8.53-1.82-8-12-8-12s1.09-6.3,6-7.23c-5.57,3.45-4.34,7.25-3,8.66s5.51,2.89,5.51,2.89-4.16.73-6.65-1.65a11,11,0,0,0,.41,2.19c2.89.74,3.43,1.45,6.64,1.58-1.85.77-5.94.2-5.94.2s1.83,1.86,7.07,1.16c-.37.7-3.79,1.06-5.65.83.73.93,1.57,2.22,6.94.4-.07.5-3.43,1.82-3.43,1.82a6.57,6.57,0,0,0,3.88,0c1.69-.69.94-.93,1.8-1.13s.27-3.64.27-3.64S54.62,109.4,54,108s-6.1-2.66-3.12-7.51c-.2,1.94-.33,2.87,1.09,3.66a1.86,1.86,0,0,1,2.46-1.06c1.55.37.91,1.33,3.43,1.39h0c2.52-.06,1.88-1,3.43-1.39a1.86,1.86,0,0,1,2.46,1.06c1.42-.79,1.29-1.72,1.09-3.66,3,4.85-2.45,6.08-3.11,7.51s-2.79,1.92-2.79,1.92-.59,3.45.27,3.64.11.44,1.8,1.13a6.57,6.57,0,0,0,3.88,0s-3.36-1.32-3.43-1.82c5.37,1.82,6.21.53,6.94-.4-1.86.23-5.28-.13-5.65-.83,5.24.7,7.08-1.16,7.08-1.16s-4.09.57-5.95-.2c3.21-.13,3.75-.84,6.64-1.58a11,11,0,0,0,.41-2.19,7.51,7.51,0,0,1-5.17,1.76,9.06,9.06,0,0,1-1.48-.11M37.18,87.05a40.68,40.68,0,0,1,1.51-5.93s-1.22,6,.84,6.67,4.93-.58,7.57,1.82c-4.34-.77-5.55-.72-8.41.23a2.54,2.54,0,0,1-.92.23c-1.08,0-.74-1.51-.59-3m6.4-1.46c-2.12-.74-3.06-4.47-3.06-4.47a7.67,7.67,0,0,0,3.38,3.55c2.55,1.41,4.37,1.82,4.9,4.08a11,11,0,0,0-5.22-3.16m28.3-.92a7.68,7.68,0,0,0,3.37-3.55s-.94,3.73-3,4.47A11,11,0,0,0,67,88.75c.53-2.26,2.35-2.67,4.91-4.08m4.37,3.12c2-.65.84-6.67.84-6.67a41,41,0,0,1,1.5,5.93c.18,1.84.65,3.67-1.5,2.79-2.87-1-4.07-1-8.42-.23,2.64-2.4,5.52-1.18,7.58-1.82M43.36,81.53c0-.71-1-.81-1.84-.84,0,0,2.36-1.75,3.49-1.62s4.75,1,5.76,4.3c.85,2.84.95,4.4.82,4.82s-2.25,6-2.25,6L50.51,86a4.71,4.71,0,0,0-.68-1.61,11.4,11.4,0,0,1-2.08.19c-1.92,0-4.37-.52-4.39-3.07m20.82,6.66c-.13-.42,0-1.68.83-4.82s4.62-4.17,5.75-4.3,3.5,1.62,3.5,1.62c-.88,0-1.81.13-1.85.84,0,3.78-5.4,3.1-6.47,2.88A4.85,4.85,0,0,0,65.27,86l1.16,8.21s-2.12-5.62-2.25-6m-23-11.7c.47-2,3.2-4.5,5.23-5.82,0,0-2.34,2.66-2.39,3.19s-.54.9,1,1.93,3.38,2.56,3.72,2.06a7.28,7.28,0,0,0,.47-2.22s.77,5,1.92,6.39c-1.89-2.34-2.49-5-9.94-5.53m29.66-.7c1.53-1,1-1.4,1-1.93s-2.39-3.19-2.39-3.19c2,1.32,4.77,3.85,5.23,5.82-7.44.53-8,3.19-9.94,5.53,1.15-1.43,1.92-6.39,1.92-6.39a7.28,7.28,0,0,0,.47,2.22.25.25,0,0,0,.22.1c.61,0,2.17-1.27,3.5-2.16M33.63,94.6a132,132,0,0,1-1-13.21c0-2.48,1.07-5,7.48-11.66,0,0-2.48,4.84-2.21,6.24s2.21,2.52,2.21,2.52-3.5-1-4.5.34-1.16,5-.92,9.76c.27,1.94,1.28,2.6,4.06,3.84a26.86,26.86,0,0,0,5.12,1.7S38,94.06,36.46,93c-.66.66-.7,3.91,3.41,7-1.51-.43-5.81-2.63-6.24-5.46M77.84,76c.27-1.4-2.21-6.24-2.21-6.24,6.41,6.63,7.44,9.18,7.48,11.66a132,132,0,0,1-1,13.21c-.42,2.83-4.72,5-6.24,5.46C80,96.92,80,93.67,79.31,93c-1.51,1-7.43,1.12-7.43,1.12A26.9,26.9,0,0,0,77,92.43c2.79-1.24,3.79-1.9,4.07-3.84.23-4.8.07-8.36-.93-9.76s-4.5-.34-4.5-.34,1.94-1.13,2.21-2.52M31.48,102.09c-.38-.22-.54-.72-.38-1.88s-1.28-3.24-1.92-3.9a3.09,3.09,0,0,1-.91-3.2c.37-1.7-.38-7.87-1-10.88s2.19-8.11,3.16-10.14,8.4-6.33,8.4-6.33-1.71,1.37-6.57,7.37c-5.46,8.48-1.07,23.67,1.17,27.63s4.65,3,4.65,3l2.23,3.49c-2.49-2.18-4.39-2.08-5.67-.27a6.26,6.26,0,0,0-3.14-4.91M82,100.76c2.25-4,6.63-19.15,1.18-27.63-4.87-6-6.58-7.37-6.58-7.37S84,70.05,85,72.09s3.8,7.13,3.15,10.14-1.39,9.18-1,10.88a3.11,3.11,0,0,1-.91,3.2c-.64.66-2.09,2.75-1.93,3.9s0,1.66-.37,1.88A6.26,6.26,0,0,0,80.75,107c-1.29-1.81-3.18-1.91-5.68.27l2.23-3.49a2,2,0,0,0,.67.1c.87,0,2.46-.43,4-3.12M71.1,61.51A48.32,48.32,0,0,0,60,59.59l.1,2.6s8.31-.1,14.19,4.06c-10.39-2.18-14.48-2.11-14.48-2.11v2.43a20.09,20.09,0,0,1,7.33,2.11,54.46,54.46,0,0,0-18.55,0,19.26,19.26,0,0,1,7.7-2.24L56.17,64s-10.08.45-14.65,2.43c2.19-2.24,7.42-3.78,14.55-4.54l-.19-2.44a38,38,0,0,0-11.7,2s12.75-8.64,26.92,0m10.05-2.79c-2.09.89-4,1.23-4.8.89A52.42,52.42,0,0,0,65.42,56a23.11,23.11,0,0,0-7.53.2A17.49,17.49,0,0,0,50,56,54.28,54.28,0,0,0,39,59.61c-.82.34-2.71,0-4.81-.89a17.28,17.28,0,0,1-6.05-4.22c-2.57,5.07-2.47,9.15-1.72,12a11.28,11.28,0,0,0,2.13,4.37S22,77.64,25,95.14l2.88-5.38S24.06,99,32.24,108.67l-.57-5.79S33,109,41,115.86a34.26,34.26,0,0,0-.46-4.94s4.46,3.74,5.13,8.88c1.16-1.66.41-2.48.41-2.48a4,4,0,0,1,1.5,4.23,3.63,3.63,0,0,0,1.58-2.65A14.76,14.76,0,0,0,52.93,123a23.77,23.77,0,0,0-.65-2.41A11,11,0,0,0,55,122.75l1.12-1.81,2.11,3.14L60.16,121a6.39,6.39,0,0,0,1.55,1.77l1.39-2.2s.24.24-.23,2.44a9.66,9.66,0,0,0,3.35-4.1,3.67,3.67,0,0,0,1.58,2.65,4,4,0,0,1,1.5-4.23s-.75.82.42,2.48c.66-5.14,5.13-8.88,5.13-8.88a34.58,34.58,0,0,0-.47,4.94c8-6.85,9.32-13,9.32-13l-.58,5.79C91.3,99,87.45,89.76,87.45,89.76l2.89,5.38c3.08-17.5-3.54-24.3-3.54-24.3a11.45,11.45,0,0,0,2.13-4.37c.74-2.82.85-6.9-1.72-12a17.32,17.32,0,0,1-6.06,4.22"/></clipPath><linearGradient id="linear-gradient-11" x1="-422.03" y1="578.05" x2="-421.6" y2="578.05" gradientTransform="matrix(157.47, 0, 0, -157.47, 66481.63, 91114.1)" xlink:href="#linear-gradient-2"/></defs><title>logo</title><path class="cls-2" d="M172.75,39V51h-5.19a23.66,23.66,0,0,0-2.12-4.87,6.88,6.88,0,0,0-2.09-2,8.43,8.43,0,0,0-4.13-.74H151V61.57h5a5.84,5.84,0,0,0,2.61-.48,3.71,3.71,0,0,0,1.57-1.57,13.92,13.92,0,0,0,1.2-3.41h4.28V71.49h-4.28a14,14,0,0,0-1.18-3.35,4.11,4.11,0,0,0-1.53-1.65A5.69,5.69,0,0,0,156,66h-5V86.22h8.22a11.83,11.83,0,0,0,2.23-.17,5.17,5.17,0,0,0,1.63-.58,6,6,0,0,0,1.38-1.14,10.39,10.39,0,0,0,1.18-1.55,16.77,16.77,0,0,0,1.08-2.2c.37-.91.79-2.16,1.25-3.75h5.19l-.72,13.83H135.17v-2.5a11.32,11.32,0,0,0,2.22-.82,2.83,2.83,0,0,0,1.21-1.21,5.65,5.65,0,0,0,.51-2c.08-.8.11-1.8.11-3V48.5c0-1.19,0-2.19-.09-3a5.12,5.12,0,0,0-.49-2,3.13,3.13,0,0,0-1.21-1.24,9.61,9.61,0,0,0-2.26-.85V39Z" transform="translate(0.8)"/><path class="cls-2" d="M213.35,48.46a22,22,0,0,0-.24-4,3.51,3.51,0,0,0-1-1.8,7,7,0,0,0-2.8-1.25V39H226v2.5a10.24,10.24,0,0,0-2.16.82,2.94,2.94,0,0,0-1.21,1.21,5.23,5.23,0,0,0-.53,2c-.07.79-.11,1.8-.11,3V72.13a34.14,34.14,0,0,1-.76,7.86,14.73,14.73,0,0,1-2.35,5.33,12.39,12.39,0,0,1-4,3.48,17.66,17.66,0,0,1-5.32,1.89,35.16,35.16,0,0,1-6.63.57,31.77,31.77,0,0,1-9.09-1.12,14.41,14.41,0,0,1-6-3.37,13.81,13.81,0,0,1-3.45-5.47,25.94,25.94,0,0,1-1.11-8.3V48.5c0-1.19,0-2.19-.1-3a5.21,5.21,0,0,0-.49-2,3.17,3.17,0,0,0-1.21-1.23,9.61,9.61,0,0,0-2.26-.85V39h19.89v2.5a8.69,8.69,0,0,0-2.29.89,3.26,3.26,0,0,0-1.12,1.16,5.14,5.14,0,0,0-.53,1.78A25.6,25.6,0,0,0,195,48.5v25A36.32,36.32,0,0,0,195.4,79a12.12,12.12,0,0,0,1.38,4.22,6.84,6.84,0,0,0,2.78,2.71,9.77,9.77,0,0,0,4.59,1q3.85,0,5.76-1.55a8.35,8.35,0,0,0,2.67-4.34,33.63,33.63,0,0,0,.77-8.31Z" transform="translate(0.8)"/><path class="cls-2" d="M252.33,90.66H232.44v-2.5a11.08,11.08,0,0,0,2.22-.82,2.77,2.77,0,0,0,1.21-1.21,5.25,5.25,0,0,0,.51-2c.08-.8.11-1.8.11-3V48.5q0-1.78-.09-3a5.21,5.21,0,0,0-.49-2,3.17,3.17,0,0,0-1.21-1.23,9.61,9.61,0,0,0-2.26-.85V39h22.09a39.1,39.1,0,0,1,7.59.63,18.84,18.84,0,0,1,5.47,1.91A11.18,11.18,0,0,1,273,47.91a15.35,15.35,0,0,1,.74,5,14.23,14.23,0,0,1-1.31,6.36,12.76,12.76,0,0,1-3.52,4.42A25.13,25.13,0,0,1,263,67v.38a13.24,13.24,0,0,1,4.64,3.24A21,21,0,0,1,271,75.73l2.39,5.15a20.8,20.8,0,0,0,3.16,5.17,6.54,6.54,0,0,0,3.73,2.11v2.5H265.66a56.33,56.33,0,0,1-5-9l-3-6.48a22.15,22.15,0,0,0-2.27-4.09,5.41,5.41,0,0,0-1.95-1.66,7.76,7.76,0,0,0-3.09-.46h-2.19v12.2a20.88,20.88,0,0,0,.26,4,3.4,3.4,0,0,0,1,1.81,6.92,6.92,0,0,0,2.8,1.22Zm-4.09-47.2V64.52H252a13.28,13.28,0,0,0,5-.81,7.68,7.68,0,0,0,3.12-2.28A8.28,8.28,0,0,0,261.7,58a20,20,0,0,0,.44-4.31c0-3.44-.81-6-2.43-7.73s-4-2.58-7.19-2.58c-2.17,0-3.6,0-4.28.08" transform="translate(0.8)"/><path class="cls-2" d="M304.71,91.26q-11.13,0-16.72-6.51T282.4,65.24a35.5,35.5,0,0,1,2.71-14.56,19.84,19.84,0,0,1,8-9.19,24,24,0,0,1,12.53-3.14q11.33,0,17,6.49t5.68,19.3a39.72,39.72,0,0,1-1.68,12.29,22.29,22.29,0,0,1-4.79,8.43,18.89,18.89,0,0,1-7.45,4.85,28.7,28.7,0,0,1-9.68,1.55m-10.26-27q0,11.43,2.75,17t8.38,5.59a7.91,7.91,0,0,0,5-1.57,11.13,11.13,0,0,0,3.31-4.4,24.83,24.83,0,0,0,1.82-6.68,60.06,60.06,0,0,0,.55-8.49A56.87,56.87,0,0,0,315,53.06a16.92,16.92,0,0,0-3.6-7.69,8,8,0,0,0-6.16-2.59q-5.49,0-8.16,5.24t-2.67,16.2" transform="translate(0.8)"/><path class="cls-2" d="M357.78,77.89a13.11,13.11,0,0,0,3.16,6.72q2.22,2.22,6.5,2.22a10.11,10.11,0,0,0,4-.76,6.26,6.26,0,0,0,2.86-2.44,7.67,7.67,0,0,0,1.08-4.22,9,9,0,0,0-.88-4.08,10.08,10.08,0,0,0-2.8-3.27,30.89,30.89,0,0,0-5.38-3.3A47.29,47.29,0,0,1,361,65.69a20.37,20.37,0,0,1-4.07-3.5A14.48,14.48,0,0,1,354.32,58a13.34,13.34,0,0,1-.93-5.11A13.3,13.3,0,0,1,355.7,45,14.17,14.17,0,0,1,362.38,40a28.21,28.21,0,0,1,10.14-1.68,55.44,55.44,0,0,1,6.44.36A66.78,66.78,0,0,1,386,40V51h-5.19a16,16,0,0,0-1.83-4.75,7.06,7.06,0,0,0-2.79-2.6,9.43,9.43,0,0,0-4.2-.83,9.54,9.54,0,0,0-3.87.75,6.12,6.12,0,0,0-2.68,2.26,6.41,6.41,0,0,0-1,3.62,8,8,0,0,0,.85,3.8,10,10,0,0,0,2.86,3.15,40.2,40.2,0,0,0,5.84,3.5,37.43,37.43,0,0,1,7.32,4.76,14.05,14.05,0,0,1,5.21,11.45,14.86,14.86,0,0,1-2.16,8.09,13.79,13.79,0,0,1-6.28,5.27,23.41,23.41,0,0,1-9.55,1.83,78,78,0,0,1-8.05-.43,68,68,0,0,1-7.86-1.27V77.89Z" transform="translate(0.8)"/><path class="cls-2" d="M430.43,39V51h-5.19a23.11,23.11,0,0,0-2.12-4.87,6.85,6.85,0,0,0-2.08-2,8.46,8.46,0,0,0-4.13-.74h-8.26V61.57h5a5.92,5.92,0,0,0,2.62-.48,3.76,3.76,0,0,0,1.57-1.57A14.42,14.42,0,0,0,419,56.11h4.28V71.49H419a13.67,13.67,0,0,0-1.17-3.35,4.13,4.13,0,0,0-1.54-1.65,5.64,5.64,0,0,0-2.67-.49h-5V86.22h8.22a11.87,11.87,0,0,0,2.24-.17,5.11,5.11,0,0,0,1.62-.58,5.81,5.81,0,0,0,1.39-1.14,10.33,10.33,0,0,0,1.17-1.55,16.77,16.77,0,0,0,1.08-2.2,34.51,34.51,0,0,0,1.25-3.75h5.19l-.72,13.83H392.86v-2.5a11.19,11.19,0,0,0,2.21-.82,2.72,2.72,0,0,0,1.21-1.21,5.44,5.44,0,0,0,.52-2c.07-.8.11-1.8.11-3V48.5c0-1.19,0-2.19-.1-3a4.94,4.94,0,0,0-.49-2,3.06,3.06,0,0,0-1.21-1.24,9.34,9.34,0,0,0-2.25-.85V39Z" transform="translate(0.8)"/><path class="cls-2" d="M474.52,40.13v11h-5.15a12.85,12.85,0,0,0-2.88-6.31,6.85,6.85,0,0,0-5.15-2q-6,0-9,5.74t-3.07,17q0,10.5,2.8,15.89t8.22,5.4a9.53,9.53,0,0,0,4.51-.93,6.83,6.83,0,0,0,2.78-2.78,19.51,19.51,0,0,0,1.8-5.23h5.19V89.37c-2.78.65-5.31,1.13-7.61,1.44a55.37,55.37,0,0,1-7.16.45q-7.87,0-12.86-2.84a16.94,16.94,0,0,1-7.35-8.58c-1.58-3.82-2.37-8.67-2.37-14.52A34,34,0,0,1,440,51a20.77,20.77,0,0,1,8.2-9.38,24.42,24.42,0,0,1,12.95-3.29,53.85,53.85,0,0,1,6.93.41,47.61,47.61,0,0,1,6.48,1.37" transform="translate(0.8)"/><path class="cls-2" d="M514.75,48.46a20.8,20.8,0,0,0-.25-4,3.42,3.42,0,0,0-1-1.8,7.08,7.08,0,0,0-2.81-1.25V39H527.4v2.5a10.24,10.24,0,0,0-2.16.82A2.94,2.94,0,0,0,524,43.48a5.23,5.23,0,0,0-.53,2c-.08.79-.12,1.8-.12,3V72.13a34.77,34.77,0,0,1-.75,7.86,14.73,14.73,0,0,1-2.35,5.33,12.39,12.39,0,0,1-4,3.48A17.76,17.76,0,0,1,511,90.69a35.16,35.16,0,0,1-6.63.57,31.67,31.67,0,0,1-9.09-1.12,14.35,14.35,0,0,1-6-3.37,13.7,13.7,0,0,1-3.45-5.47,25.63,25.63,0,0,1-1.12-8.3V48.5q0-1.78-.09-3a5.21,5.21,0,0,0-.49-2,3.13,3.13,0,0,0-1.22-1.23,9.34,9.34,0,0,0-2.25-.85V39h19.89v2.5a8.94,8.94,0,0,0-2.3.89,3.23,3.23,0,0,0-1.11,1.16,4.93,4.93,0,0,0-.53,1.78,25.2,25.2,0,0,0-.16,3.22v25a36.32,36.32,0,0,0,.38,5.45,12.33,12.33,0,0,0,1.39,4.22A6.78,6.78,0,0,0,501,85.88a9.76,9.76,0,0,0,4.58,1q3.87,0,5.76-1.55A8.35,8.35,0,0,0,514,80.94a33,33,0,0,0,.78-8.31Z" transform="translate(0.8)"/><path class="cls-2" d="M553.72,90.66H533.84v-2.5a11.57,11.57,0,0,0,2.22-.82,2.83,2.83,0,0,0,1.21-1.21,5.65,5.65,0,0,0,.51-2c.07-.8.11-1.8.11-3V48.5q0-1.78-.09-3a5.2,5.2,0,0,0-.5-2,3,3,0,0,0-1.21-1.23,9.34,9.34,0,0,0-2.25-.85V39h22.08a39.21,39.21,0,0,1,7.6.63A19,19,0,0,1,569,41.49a11.53,11.53,0,0,1,3.33,2.67,11.66,11.66,0,0,1,2.11,3.75,15.36,15.36,0,0,1,.73,5,14.23,14.23,0,0,1-1.3,6.36,12.78,12.78,0,0,1-3.53,4.42A25,25,0,0,1,564.41,67v.38a13.43,13.43,0,0,1,4.64,3.24,21,21,0,0,1,3.31,5.13l2.39,5.15a20.51,20.51,0,0,0,3.16,5.17,6.51,6.51,0,0,0,3.73,2.11v2.5H567.06a55.55,55.55,0,0,1-5-9l-3-6.48a22.15,22.15,0,0,0-2.27-4.09,5.41,5.41,0,0,0-2-1.66,7.76,7.76,0,0,0-3.09-.46h-2.2v12.2a19.86,19.86,0,0,0,.27,4,3.45,3.45,0,0,0,1,1.81,7.06,7.06,0,0,0,2.8,1.22Zm-4.09-47.2V64.52h3.75a13.24,13.24,0,0,0,5-.81,7.65,7.65,0,0,0,3.13-2.28A8.28,8.28,0,0,0,563.1,58a20,20,0,0,0,.44-4.31c0-3.44-.81-6-2.43-7.73s-4-2.58-7.2-2.58c-2.17,0-3.59,0-4.28.08" transform="translate(0.8)"/><path class="cls-2" d="M601,81.15c0,.88,0,1.7.07,2.46a8.72,8.72,0,0,0,.31,1.86,3.28,3.28,0,0,0,.66,1.21,3.67,3.67,0,0,0,1.19.85,10.06,10.06,0,0,0,1.86.63v2.5H585.16v-2.5a11.08,11.08,0,0,0,2.22-.82,2.77,2.77,0,0,0,1.21-1.21,5.25,5.25,0,0,0,.51-2c.08-.8.12-1.8.12-3V48.46c0-1.21,0-2.21-.1-3a5,5,0,0,0-.49-1.95,2.93,2.93,0,0,0-1.21-1.23,9.65,9.65,0,0,0-2.26-.84V39h19.89v2.5a8.69,8.69,0,0,0-2.29.89,3.26,3.26,0,0,0-1.12,1.16,5.14,5.14,0,0,0-.53,1.78A25.6,25.6,0,0,0,601,48.5Z" transform="translate(0.8)"/><path class="cls-2" d="M623,90.66v-2.5a10.06,10.06,0,0,0,2.52-.71,3,3,0,0,0,1.39-1.23,4.92,4.92,0,0,0,.56-2c.08-.82.12-1.84.12-3V43.38h-3.07a9.09,9.09,0,0,0-3.49.53,5.49,5.49,0,0,0-2.1,1.67,10.31,10.31,0,0,0-1.53,3.05c-.43,1.28-.79,2.48-1.06,3.62h-5.19V39h44.58v13.3h-5.19c-.48-1.72-.86-3-1.14-3.79a10.22,10.22,0,0,0-.92-2.06A7.32,7.32,0,0,0,647.4,45a5.12,5.12,0,0,0-1.22-.9,5.47,5.47,0,0,0-1.6-.52,15.55,15.55,0,0,0-2.52-.17h-2.73V81.15c0,1.34,0,2.35.11,3a5.55,5.55,0,0,0,.42,1.68,3.18,3.18,0,0,0,.74,1,4.12,4.12,0,0,0,1.21.73,9.47,9.47,0,0,0,2.1.51v2.5Z" transform="translate(0.8)"/><path class="cls-2" d="M687.09,70.77V81.15a28.85,28.85,0,0,0,.12,3,5.29,5.29,0,0,0,.41,1.68,3.34,3.34,0,0,0,.74,1,4.18,4.18,0,0,0,1.22.73,9.19,9.19,0,0,0,2.1.51v2.5H670.77v-2.5a10.63,10.63,0,0,0,2.48-.69,2.84,2.84,0,0,0,1.38-1.21,5.07,5.07,0,0,0,.59-2,29.49,29.49,0,0,0,.13-3.09V70.77L665.09,49.1c-.89-1.84-1.58-3.2-2.09-4.09a13,13,0,0,0-1.49-2.23,4.18,4.18,0,0,0-1.16-1,4.57,4.57,0,0,0-1.47-.38V39h20.18v2.5q-2.91.38-2.91,2.88a7.21,7.21,0,0,0,.47,2.35c.32.91.83,2.12,1.53,3.64l6.41,14.24,6.93-13.9a23,23,0,0,0,1.42-3.47,10.11,10.11,0,0,0,.4-2.75,2.89,2.89,0,0,0-.78-2.14,3.23,3.23,0,0,0-2.18-.85V39h15.19v2.5a5.46,5.46,0,0,0-1.68.63,6.68,6.68,0,0,0-1.46,1.25,19.94,19.94,0,0,0-1.9,2.55c-.73,1.14-1.58,2.62-2.53,4.44Z" transform="translate(0.8)"/><path class="cls-3" d="M225,132.77l1.15-1.32a11.39,11.39,0,0,0,8.49,3.52c3.56,0,6-2,6-4.71v-.07c0-2.5-1.32-4-6.71-5-5.72-1.18-8-3.05-8-6.67v-.07c0-3.52,3.22-6.22,7.62-6.22a11.89,11.89,0,0,1,8.13,2.87l-1.12,1.39a10.26,10.26,0,0,0-7.08-2.67c-3.52,0-5.78,2-5.78,4.47v.06c0,2.54,1.28,4,6.9,5.18s7.79,3.05,7.79,6.54v.06c0,3.83-3.29,6.47-7.86,6.47a13.46,13.46,0,0,1-9.54-3.79" transform="translate(0.8)"/><polygon class="cls-3" points="249.02 112.53 265.88 112.53 265.88 114.15 250.78 114.15 250.78 123.46 264.36 123.46 264.36 125.08 250.78 125.08 250.78 134.6 266.05 134.6 266.05 136.22 249.02 136.22 249.02 112.53"/><path class="cls-3" d="M269.85,124.44v-.07c0-6.7,5-12.25,11.85-12.25a12.42,12.42,0,0,1,9.21,3.79l-1.26,1.29a10.85,10.85,0,0,0-8-3.49c-5.68,0-10,4.64-10,10.59v.07c0,6,4.37,10.67,10,10.67,3.42,0,5.75-1.29,8.16-3.69L291,132.5c-2.54,2.43-5.21,4.13-9.41,4.13-6.8,0-11.78-5.38-11.78-12.19" transform="translate(0.8)"/><path class="cls-3" d="M295.51,126.37V112.52h1.76V126.2c0,5.65,3,8.8,8,8.8,4.77,0,7.89-2.91,7.89-8.63V112.52h1.76v13.65c0,6.77-4,10.42-9.72,10.42s-9.71-3.59-9.71-10.22" transform="translate(0.8)"/><path class="cls-3" d="M321.6,112.53h9.95a9.15,9.15,0,0,1,6.67,2.33,6.2,6.2,0,0,1,1.8,4.4v.07c0,4-3,6.23-6.94,6.77l7.82,10.12h-2.24l-7.55-9.82h-7.75v9.82H321.6Zm9.75,12.28c4,0,6.91-2,6.91-5.41v-.07c0-3.22-2.47-5.18-6.81-5.18h-8.09v10.66Z" transform="translate(0.8)"/><rect class="cls-3" x="347.11" y="112.53" width="1.76" height="23.7"/><polygon class="cls-3" points="362.71 114.15 354.45 114.15 354.45 112.53 372.73 112.53 372.73 114.15 364.48 114.15 364.48 136.22 362.71 136.22 362.71 114.15"/><polygon class="cls-3" points="385.8 126.84 375.64 112.53 377.84 112.53 386.71 125.25 395.61 112.53 397.71 112.53 387.56 126.81 387.56 136.22 385.8 136.22 385.8 126.84"/><path class="cls-3" d="M410.14,132.77l1.15-1.32a11.41,11.41,0,0,0,8.5,3.52c3.55,0,6-2,6-4.71v-.07c0-2.5-1.32-4-6.7-5-5.72-1.18-8-3.05-8-6.67v-.07c0-3.52,3.22-6.22,7.62-6.22a11.85,11.85,0,0,1,8.12,2.87l-1.11,1.39a10.26,10.26,0,0,0-7.08-2.67c-3.52,0-5.79,2-5.79,4.47v.06c0,2.54,1.29,4,6.91,5.18s7.78,3.05,7.78,6.54v.06c0,3.83-3.28,6.47-7.85,6.47a13.5,13.5,0,0,1-9.55-3.79" transform="translate(0.8)"/><path class="cls-3" d="M432.28,124.44v-.07c0-6.5,4.77-12.25,12-12.25s11.88,5.72,11.88,12.18v.07c0,6.5-4.77,12.26-11.95,12.26s-11.88-5.72-11.88-12.19m22,0v-.07c0-5.85-4.26-10.66-10.12-10.66s-10.05,4.74-10.05,10.59v.07c0,5.86,4.26,10.67,10.12,10.67s10-4.74,10-10.6" transform="translate(0.8)"/><polygon class="cls-3" points="462.9 112.53 464.66 112.53 464.66 134.6 478.57 134.6 478.57 136.22 462.9 136.22 462.9 112.53"/><path class="cls-3" d="M482,126.37V112.52h1.76V126.2c0,5.65,3,8.8,8,8.8,4.78,0,7.89-2.91,7.89-8.63V112.52h1.76v13.65c0,6.77-4,10.42-9.72,10.42S482,133,482,126.37" transform="translate(0.8)"/><polygon class="cls-3" points="515.46 114.15 507.2 114.15 507.2 112.53 525.48 112.53 525.48 114.15 517.22 114.15 517.22 136.22 515.46 136.22 515.46 114.15"/><rect class="cls-3" x="531.07" y="112.53" width="1.76" height="23.7"/><path class="cls-3" d="M538.25,124.44v-.07c0-6.5,4.78-12.25,12-12.25s11.88,5.72,11.88,12.18v.07c0,6.5-4.77,12.26-12,12.26s-11.88-5.72-11.88-12.19m22,0v-.07c0-5.85-4.27-10.66-10.13-10.66s-10,4.74-10,10.59v.07c0,5.86,4.27,10.67,10.12,10.67s10.06-4.74,10.06-10.6" transform="translate(0.8)"/><polygon class="cls-3" points="568.87 112.53 570.53 112.53 586.88 133.14 586.88 112.53 588.57 112.53 588.57 136.22 587.25 136.22 570.56 115.17 570.56 136.22 568.87 136.22 568.87 112.53"/><path class="cls-3" d="M593.29,132.77l1.15-1.32a11.4,11.4,0,0,0,8.5,3.52c3.55,0,6-2,6-4.71v-.07c0-2.5-1.32-4-6.71-5-5.72-1.18-8-3.05-8-6.67v-.07c0-3.52,3.22-6.22,7.62-6.22a11.85,11.85,0,0,1,8.12,2.87l-1.11,1.39a10.26,10.26,0,0,0-7.08-2.67c-3.52,0-5.79,2-5.79,4.47v.06c0,2.54,1.29,4,6.91,5.18s7.79,3.05,7.79,6.54v.06c0,3.83-3.29,6.47-7.86,6.47a13.46,13.46,0,0,1-9.54-3.79" transform="translate(0.8)"/><path class="cls-3" d="M3.58,40.28S51.05,12.91,112,40c9.34,73.83-53.46,98.9-53.46,98.9s-65.82-28.08-55-98.65" transform="translate(0.8)"/><g class="cls-4"><rect class="cls-5" y="26.19" width="116.88" height="114.79"/></g><polygon class="cls-2" points="59.71 0 62.09 7.3 69.76 7.3 63.55 11.82 65.92 19.12 59.71 14.61 53.5 19.12 55.87 11.82 49.66 7.3 57.34 7.3 59.71 0"/><polygon class="cls-2" points="84.99 7.15 86.58 12.03 91.7 12.03 87.56 15.04 89.14 19.91 84.99 16.9 80.85 19.91 82.43 15.04 78.28 12.03 83.41 12.03 84.99 7.15"/><polygon class="cls-2" points="109.46 14.19 111.04 19.07 116.17 19.07 112.02 22.08 113.6 26.95 109.46 23.94 105.31 26.95 106.89 22.08 102.75 19.07 107.87 19.07 109.46 14.19"/><polygon class="cls-2" points="7.51 14.19 9.09 19.07 14.22 19.07 10.07 22.08 11.65 26.95 7.51 23.94 3.36 26.95 4.95 22.08 0.8 19.07 5.92 19.07 7.51 14.19"/><polygon class="cls-2" points="31.97 7.15 33.56 12.03 38.68 12.03 34.54 15.04 36.12 19.91 31.97 16.9 27.83 19.91 29.41 15.04 25.27 12.03 30.39 12.03 31.97 7.15"/><g class="cls-6"><rect class="cls-7" x="44.4" y="43.03" width="28.38" height="14.34"/></g><g class="cls-8"><rect class="cls-9" x="44.58" y="38.19" width="27.98" height="16.15"/></g><g class="cls-10"><rect class="cls-11" x="43.07" y="44.97" width="2.67" height="2.67"/></g><g class="cls-12"><rect class="cls-13" x="71.23" y="44.97" width="2.67" height="2.67"/></g><g class="cls-14"><rect class="cls-15" x="57.28" y="35.68" width="2.67" height="2.67"/></g><g class="cls-16"><rect class="cls-17" x="50.75" y="52.09" width="2.12" height="2.12"/></g><g class="cls-18"><rect class="cls-19" x="64.39" y="52.09" width="2.12" height="2.12"/></g><g class="cls-20"><rect class="cls-21" x="57.17" y="52.04" width="2.91" height="2.91"/></g><g class="cls-22"><rect class="cls-23" x="55.91" y="47.89" width="5.3" height="5.87"/></g><g class="cls-24"><rect class="cls-25" x="22.75" y="52.87" width="71.47" height="71.21"/></g></svg>