<?xml version="1.0" encoding="utf-8"?>
<!-- Generator: Adobe Illustrator 23.0.0, SVG Export Plug-In . SVG Version: 6.00 Build 0)  -->
<svg version="1.1" id="Layer_1" xmlns="http://www.w3.org/2000/svg" xmlns:xlink="http://www.w3.org/1999/xlink" x="0px" y="0px"
	 viewBox="0 0 797.9 202.6" style="enable-background:new 0 0 797.9 202.6;" xml:space="preserve">
<style type="text/css">
	.st0{fill:#DAA16A;}
	.st1{fill:#0C2D48;}
	.st2{clip-path:url(#SVGID_2_);}
	.st3{fill:url(#SVGID_3_);}
	.st4{clip-path:url(#SVGID_5_);}
	.st5{fill:url(#SVGID_6_);}
	.st6{clip-path:url(#SVGID_8_);}
	.st7{fill:url(#SVGID_9_);}
	.st8{clip-path:url(#SVGID_11_);}
	.st9{fill:url(#SVGID_12_);}
	.st10{clip-path:url(#SVGID_14_);}
	.st11{fill:url(#SVGID_15_);}
	.st12{clip-path:url(#SVGID_17_);}
	.st13{fill:url(#SVGID_18_);}
	.st14{clip-path:url(#SVGID_20_);}
	.st15{fill:url(#SVGID_21_);}
	.st16{clip-path:url(#SVGID_23_);}
	.st17{fill:url(#SVGID_24_);}
	.st18{clip-path:url(#SVGID_26_);}
	.st19{fill:url(#SVGID_27_);}
	.st20{clip-path:url(#SVGID_29_);}
	.st21{fill:url(#SVGID_30_);}
	.st22{clip-path:url(#SVGID_32_);}
	.st23{fill:url(#SVGID_33_);}
</style>
<title>logo</title>
<g>
	<path class="st0" d="M226.8,85.2v12.6h-5.5c-0.5-1.8-1.3-3.5-2.2-5.1c-0.6-0.9-1.3-1.6-2.2-2.1c-1.4-0.6-2.9-0.9-4.4-0.8h-8.7V109
		h5.3c0.9,0,1.9-0.1,2.8-0.5c0.7-0.4,1.3-0.9,1.7-1.7c0.6-1.1,1-2.3,1.3-3.6h4.5v16.2h-4.5c-0.3-1.2-0.7-2.4-1.2-3.5
		c-0.4-0.7-0.9-1.3-1.6-1.7c-0.9-0.4-1.8-0.6-2.8-0.5h-5.3V135h8.7c0.8,0,1.6,0,2.4-0.2c0.6-0.1,1.2-0.3,1.7-0.6
		c0.5-0.3,1-0.7,1.5-1.2c0.5-0.5,0.9-1.1,1.2-1.6c0.4-0.7,0.8-1.5,1.1-2.3c0.4-1,0.8-2.3,1.3-4h5.5l-0.8,14.6h-39.3v-2.6
		c0.8-0.2,1.6-0.5,2.3-0.9c0.5-0.3,1-0.7,1.3-1.3c0.3-0.7,0.5-1.4,0.5-2.1c0.1-0.8,0.1-1.9,0.1-3.2V95.3c0-1.3,0-2.3-0.1-3.2
		c0-0.7-0.2-1.4-0.5-2.1c-0.3-0.5-0.7-1-1.3-1.3c-0.8-0.4-1.6-0.7-2.4-0.9v-2.5H226.8z"/>
	<path class="st0" d="M269.6,95.2c0-1.4,0-2.8-0.3-4.2c-0.2-0.7-0.5-1.4-1.1-1.9c-0.9-0.7-1.9-1.1-3-1.3v-2.5h17.6v2.6
		c-0.8,0.2-1.6,0.5-2.3,0.9c-0.5,0.3-1,0.7-1.3,1.3c-0.3,0.7-0.5,1.4-0.6,2.1c-0.1,0.8-0.1,1.9-0.1,3.2v24.9
		c0.1,2.8-0.2,5.6-0.8,8.3c-0.4,2-1.3,3.9-2.5,5.6c-1.1,1.5-2.6,2.8-4.2,3.7c-1.8,1-3.6,1.6-5.6,2c-2.3,0.4-4.6,0.6-7,0.6
		c-3.2,0.1-6.5-0.3-9.6-1.2c-2.4-0.7-4.5-1.9-6.3-3.6c-1.7-1.6-2.9-3.6-3.6-5.8c-0.9-2.8-1.3-5.8-1.2-8.7V95.3c0-1.3,0-2.3-0.1-3.2
		c0-0.7-0.2-1.4-0.5-2.1c-0.3-0.5-0.7-1-1.3-1.3c-0.8-0.4-1.6-0.7-2.4-0.9v-2.6h21v2.6c-0.8,0.2-1.7,0.5-2.4,0.9
		c-0.5,0.3-0.9,0.7-1.2,1.2c-0.3,0.6-0.5,1.2-0.6,1.9c-0.1,1.1-0.2,2.2-0.2,3.3v26.3c0,1.9,0.1,3.9,0.4,5.8c0.2,1.6,0.7,3.1,1.5,4.4
		c0.7,1.2,1.7,2.2,2.9,2.9c1.5,0.7,3.2,1.1,4.8,1.1c2.7,0,4.7-0.5,6.1-1.6c1.4-1.2,2.4-2.8,2.8-4.6c0.6-2.9,0.9-5.8,0.8-8.8
		L269.6,95.2z"/>
	<path class="st0" d="M310.7,139.7h-21v-2.6c0.8-0.2,1.6-0.5,2.3-0.9c0.5-0.3,1-0.7,1.3-1.3c0.3-0.7,0.5-1.4,0.5-2.1
		c0.1-0.8,0.1-1.9,0.1-3.2V95.3c0-1.3,0-2.3-0.1-3.2c0-0.7-0.2-1.4-0.5-2.1c-0.3-0.5-0.7-1-1.3-1.3c-0.8-0.4-1.6-0.7-2.4-0.9v-2.6
		H313c2.7,0,5.4,0.2,8,0.7c2,0.4,4,1,5.8,2c2.7,1.4,4.7,3.8,5.7,6.7c0.5,1.7,0.8,3.5,0.8,5.3c0.1,2.3-0.4,4.6-1.4,6.7
		c-0.9,1.8-2.1,3.4-3.7,4.7c-1.9,1.4-4,2.6-6.2,3.5v0.4c1.9,0.8,3.5,1.9,4.9,3.4c1.4,1.6,2.6,3.4,3.5,5.4l2.5,5.4
		c0.8,2,2,3.8,3.3,5.4c1,1.2,2.4,1.9,3.9,2.2v2.6h-15.4c-2-3-3.8-6.2-5.3-9.5l-3.2-6.8c-0.6-1.5-1.4-3-2.4-4.3
		c-0.5-0.7-1.2-1.3-2.1-1.7c-1-0.4-2.1-0.5-3.3-0.5h-2.3v12.9c0,1.4,0,2.8,0.3,4.2c0.1,0.7,0.5,1.4,1.1,1.9c0.9,0.6,1.9,1.1,3,1.3
		L310.7,139.7z M306.4,89.9v22.2h4c1.8,0.1,3.6-0.2,5.3-0.9c1.3-0.5,2.4-1.3,3.3-2.4c0.8-1.1,1.4-2.3,1.7-3.6c0.3-1.5,0.5-3,0.5-4.5
		c0-3.6-0.9-6.3-2.6-8.1c-1.7-1.8-4.2-2.7-7.6-2.7C308.6,89.9,307.1,89.9,306.4,89.9"/>
	<path class="st0" d="M365.9,140.3c-7.8,0-13.7-2.3-17.6-6.9c-3.9-4.6-5.9-11.4-5.9-20.6c-0.1-5.3,0.8-10.5,2.9-15.3
		c1.7-4,4.7-7.4,8.4-9.7c4-2.3,8.6-3.4,13.2-3.3c8,0,13.9,2.3,17.9,6.8c4,4.6,6,11.3,6,20.3c0.1,4.4-0.5,8.8-1.8,13
		c-1,3.3-2.7,6.3-5,8.9c-2.2,2.3-4.9,4.1-7.9,5.1C372.8,139.8,369.4,140.4,365.9,140.3 M355.1,111.9c0,8,1,14,2.9,17.9
		c1.9,3.9,4.9,5.9,8.8,5.9c1.9,0.1,3.8-0.5,5.3-1.7c1.5-1.2,2.7-2.8,3.5-4.6c1-2.2,1.6-4.6,1.9-7c0.4-3,0.6-6,0.6-8.9
		c0.1-4.5-0.4-9-1.3-13.3c-0.6-3-1.9-5.8-3.8-8.1c-1.7-1.8-4-2.8-6.5-2.7c-3.9,0-6.7,1.8-8.6,5.5C356,98.4,355,104.1,355.1,111.9"/>
	<path class="st0" d="M421.8,126.2c0.4,2.6,1.6,5.1,3.3,7.1c1.6,1.6,3.8,2.3,6.9,2.3c1.4,0,2.9-0.3,4.2-0.8c1.2-0.5,2.3-1.4,3-2.6
		c0.8-1.3,1.2-2.9,1.1-4.4c0-1.5-0.3-3-0.9-4.3c-0.7-1.3-1.7-2.5-3-3.4c-1.8-1.3-3.7-2.5-5.7-3.5c-1.9-1-3.8-2-5.6-3.2
		c-1.6-1-3-2.3-4.3-3.7c-1.2-1.3-2.1-2.8-2.8-4.4c-0.7-1.7-1-3.5-1-5.4c-0.1-3,0.8-5.9,2.4-8.3c1.8-2.4,4.2-4.3,7-5.3
		c3.4-1.2,7-1.8,10.7-1.8c2.3,0,4.5,0.1,6.8,0.4c2.5,0.3,5,0.8,7.4,1.4v11.6h-5.5c-0.4-1.8-1-3.5-1.9-5c-0.7-1.2-1.7-2.1-2.9-2.7
		c-1.4-0.6-2.9-0.9-4.4-0.9c-1.4,0-2.8,0.2-4.1,0.8c-1.2,0.5-2.1,1.3-2.8,2.4c-0.7,1.1-1.1,2.5-1.1,3.8c0,1.4,0.3,2.8,0.9,4
		c0.8,1.3,1.8,2.4,3,3.3c1.9,1.4,4,2.6,6.2,3.7c2.8,1.4,5.3,3,7.7,5c3.6,2.9,5.7,7.4,5.5,12.1c0.1,3-0.7,6-2.3,8.5
		c-1.6,2.5-3.9,4.4-6.6,5.6c-3.2,1.3-6.6,2-10.1,1.9c-2.8,0-5.7-0.2-8.5-0.5c-2.8-0.3-5.6-0.7-8.3-1.3v-12.3H421.8z"/>
	<path class="st0" d="M498.4,85.2v12.6h-5.5c-0.5-1.8-1.3-3.5-2.2-5.1c-0.6-0.9-1.3-1.6-2.2-2.1c-1.4-0.6-2.9-0.9-4.4-0.8h-8.7V109
		h5.3c0.9,0,1.9-0.1,2.8-0.5c0.7-0.4,1.3-0.9,1.7-1.7c0.6-1.1,1-2.3,1.2-3.6h4.5v16.2h-4.5c-0.3-1.2-0.7-2.4-1.2-3.5
		c-0.4-0.7-0.9-1.3-1.6-1.7c-0.9-0.4-1.8-0.6-2.8-0.5h-5.3V135h8.7c0.8,0,1.6,0,2.4-0.2c0.6-0.1,1.2-0.3,1.7-0.6
		c0.5-0.3,1-0.7,1.5-1.2c0.5-0.5,0.9-1.1,1.2-1.6c0.4-0.7,0.8-1.5,1.1-2.3c0.5-1.3,1-2.6,1.3-4h5.5l-0.8,14.6h-39.2v-2.6
		c0.8-0.2,1.6-0.5,2.3-0.9c0.6-0.3,1-0.7,1.3-1.3c0.3-0.7,0.5-1.4,0.5-2.1c0.1-0.8,0.1-1.9,0.1-3.2V95.3c0-1.3,0-2.3-0.1-3.2
		c0-0.7-0.2-1.4-0.5-2.1c-0.3-0.5-0.7-1-1.3-1.3c-0.7-0.4-1.5-0.7-2.4-0.9v-2.5H498.4z"/>
	<path class="st0" d="M544.9,86.4V98h-5.4c-0.4-2.5-1.4-4.8-3-6.7c-1.4-1.4-3.4-2.2-5.4-2.1c-4.2,0-7.4,2-9.5,6
		c-2.1,4-3.2,10-3.2,17.9c0,7.4,1,13,3,16.7c2,3.8,4.9,5.7,8.7,5.7c1.6,0.1,3.3-0.3,4.8-1c1.2-0.7,2.3-1.7,2.9-2.9
		c0.9-1.7,1.5-3.6,1.9-5.5h5.5v12.1c-2.9,0.7-5.6,1.2-8,1.5c-2.5,0.3-5,0.5-7.5,0.5c-5.5,0-10-1-13.6-3c-3.5-2-6.3-5.2-7.7-9
		c-1.7-4-2.5-9.1-2.5-15.3c-0.1-5.2,0.9-10.3,2.9-15.1c1.8-4.1,4.8-7.6,8.6-9.9c4.1-2.4,8.9-3.6,13.6-3.5c2.4,0,4.9,0.1,7.3,0.4
		C540.4,85.3,542.7,85.8,544.9,86.4"/>
	<path class="st0" d="M587.3,95.2c0-1.4,0-2.8-0.3-4.2c-0.1-0.7-0.5-1.4-1.1-1.9c-0.9-0.7-1.9-1.1-3-1.3v-2.5h17.6v2.6
		c-0.8,0.2-1.6,0.5-2.3,0.9c-0.5,0.3-1,0.7-1.3,1.2c-0.3,0.7-0.5,1.4-0.6,2.1c-0.1,0.8-0.1,1.9-0.1,3.2v24.9
		c0.1,2.8-0.2,5.6-0.8,8.3c-0.4,2-1.3,3.9-2.5,5.6c-1.1,1.5-2.6,2.8-4.2,3.7c-1.7,1-3.6,1.6-5.5,2c-2.3,0.4-4.6,0.6-7,0.6
		c-3.2,0.1-6.5-0.3-9.6-1.2c-2.4-0.7-4.5-1.9-6.3-3.6c-1.7-1.6-2.9-3.6-3.6-5.8c-0.9-2.8-1.3-5.8-1.2-8.7V95.3c0-1.3,0-2.3-0.1-3.2
		c0-0.7-0.2-1.4-0.5-2.1c-0.3-0.5-0.7-1-1.3-1.3c-0.7-0.4-1.5-0.7-2.4-0.9v-2.6h21v2.6c-0.8,0.2-1.7,0.5-2.4,0.9
		c-0.5,0.3-0.9,0.7-1.2,1.2c-0.3,0.6-0.5,1.2-0.6,1.9c-0.1,1.1-0.2,2.3-0.2,3.4v26.3c0,1.9,0.1,3.8,0.4,5.7c0.2,1.6,0.7,3.1,1.5,4.4
		c0.7,1.2,1.7,2.2,2.9,2.8c1.5,0.7,3.2,1.1,4.8,1.1c2.7,0,4.7-0.5,6.1-1.6c1.4-1.2,2.4-2.8,2.8-4.6c0.6-2.9,0.9-5.8,0.8-8.8
		L587.3,95.2z"/>
	<path class="st0" d="M628.3,139.7h-21v-2.6c0.8-0.2,1.6-0.5,2.3-0.9c0.5-0.3,1-0.7,1.3-1.3c0.3-0.7,0.5-1.4,0.5-2.1
		c0.1-0.8,0.1-1.9,0.1-3.2V95.3c0-1.3,0-2.3-0.1-3.2c0-0.7-0.2-1.4-0.5-2.1c-0.3-0.5-0.7-1-1.3-1.3c-0.7-0.4-1.5-0.7-2.4-0.9v-2.6
		h23.3c2.7,0,5.4,0.2,8,0.7c2,0.4,4,1,5.8,2c1.3,0.7,2.5,1.7,3.5,2.8c1,1.2,1.7,2.5,2.2,4c0.5,1.7,0.8,3.5,0.8,5.3
		c0.1,2.3-0.4,4.6-1.4,6.7c-0.9,1.8-2.1,3.4-3.7,4.7c-1.9,1.4-4,2.6-6.2,3.5v0.4c1.9,0.8,3.5,1.9,4.9,3.4c1.4,1.6,2.6,3.4,3.5,5.4
		l2.5,5.4c0.8,2,2,3.8,3.3,5.4c1,1.2,2.4,1.9,3.9,2.2v2.6h-15.4c-2-3-3.8-6.2-5.3-9.5l-3.2-6.8c-0.6-1.5-1.4-3-2.4-4.3
		c-0.5-0.7-1.3-1.3-2.1-1.7c-1-0.4-2.1-0.5-3.3-0.5h-2.3v12.9c0,1.4,0,2.8,0.3,4.2c0.1,0.7,0.5,1.4,1.1,1.9c0.9,0.6,1.9,1.1,3,1.3
		L628.3,139.7z M624,89.9v22.2h4c1.8,0.1,3.6-0.2,5.3-0.9c1.3-0.5,2.4-1.3,3.3-2.4c0.8-1.1,1.4-2.3,1.7-3.6c0.3-1.5,0.5-3,0.5-4.5
		c0-3.6-0.9-6.3-2.6-8.1c-1.7-1.8-4.2-2.7-7.6-2.7C626.2,89.9,624.7,89.9,624,89.9"/>
	<path class="st0" d="M678.2,129.7c0,0.9,0,1.8,0.1,2.6c0,0.7,0.1,1.3,0.3,2c0.1,0.5,0.4,0.9,0.7,1.3c0.4,0.4,0.8,0.7,1.3,0.9
		c0.6,0.3,1.3,0.5,2,0.7v2.6h-21v-2.6c0.8-0.2,1.6-0.5,2.3-0.9c0.5-0.3,1-0.7,1.3-1.3c0.3-0.7,0.5-1.4,0.5-2.1
		c0.1-0.8,0.1-1.9,0.1-3.2V95.2c0-1.3,0-2.3-0.1-3.2c0-0.7-0.2-1.4-0.5-2.1c-0.3-0.6-0.7-1-1.3-1.3c-0.8-0.4-1.6-0.7-2.4-0.9v-2.6
		h21v2.6c-0.8,0.2-1.7,0.5-2.4,0.9c-0.5,0.3-0.9,0.7-1.2,1.2c-0.3,0.6-0.5,1.2-0.6,1.9c-0.1,1.1-0.1,2.2-0.1,3.3V129.7z"/>
	<path class="st0" d="M701.3,139.7v-2.6c0.9-0.1,1.8-0.4,2.7-0.7c0.6-0.3,1.1-0.7,1.5-1.3c0.3-0.7,0.5-1.4,0.6-2.1
		c0.1-0.9,0.1-1.9,0.1-3.2V89.9h-3.2c-1.3-0.1-2.5,0.1-3.7,0.6c-0.9,0.4-1.6,1-2.2,1.8c-0.7,1-1.3,2.1-1.6,3.2
		c-0.5,1.3-0.8,2.6-1.1,3.8h-5.5v-14h47v14h-5.5c-0.5-1.8-0.9-3.2-1.2-4c-0.2-0.8-0.6-1.5-1-2.2c-0.3-0.6-0.7-1.1-1.1-1.5
		c-0.4-0.4-0.8-0.7-1.3-0.9c-0.5-0.3-1.1-0.5-1.7-0.5c-0.9-0.1-1.8-0.2-2.7-0.2h-2.9v39.8c0,1.4,0,2.5,0.1,3.2
		c0.1,0.6,0.2,1.2,0.4,1.8c0.2,0.4,0.5,0.8,0.8,1.1c0.4,0.3,0.8,0.6,1.3,0.8c0.7,0.3,1.5,0.4,2.2,0.5v2.6L701.3,139.7z"/>
	<path class="st0" d="M768.9,118.7v10.9c0,1.1,0,2.1,0.1,3.2c0,0.6,0.2,1.2,0.4,1.8c0.2,0.4,0.5,0.8,0.8,1.1
		c0.4,0.3,0.8,0.6,1.3,0.8c0.7,0.3,1.5,0.4,2.2,0.5v2.6h-22V137c0.9-0.1,1.8-0.4,2.6-0.7c0.6-0.3,1.1-0.7,1.5-1.3
		c0.4-0.7,0.6-1.4,0.6-2.1c0.1-1.1,0.1-2.2,0.1-3.3v-10.9l-10.8-22.8c-0.9-1.9-1.7-3.4-2.2-4.3c-0.4-0.8-1-1.6-1.6-2.4
		c-0.3-0.4-0.8-0.8-1.2-1.1c-0.5-0.2-1-0.4-1.5-0.4v-2.5h21.3v2.6c-2,0.3-3.1,1.3-3.1,3c0,0.8,0.2,1.7,0.5,2.5
		c0.3,1,0.9,2.2,1.6,3.8l6.8,15l7.3-14.6c0.6-1.2,1.1-2.4,1.5-3.7c0.3-0.9,0.4-1.9,0.4-2.9c0-0.8-0.3-1.6-0.8-2.3
		c-0.6-0.6-1.4-0.9-2.3-0.9v-2.6h16v2.6c-0.6,0.1-1.2,0.3-1.8,0.7c-0.6,0.4-1.1,0.8-1.5,1.3c-0.7,0.8-1.4,1.7-2,2.7
		c-0.8,1.2-1.7,2.8-2.7,4.7L768.9,118.7z"/>
	<path class="st1" d="M281.9,184.1l1.2-1.4c2.3,2.4,5.6,3.8,8.9,3.7c3.8,0,6.3-2.1,6.3-5v-0.1c0-2.6-1.4-4.2-7.1-5.3
		c-6-1.2-8.4-3.2-8.4-7V169c0-3.7,3.4-6.6,8-6.6c3.1-0.1,6.2,1,8.6,3l-1.2,1.5c-2-1.9-4.7-2.9-7.5-2.8c-3.7,0-6.1,2.1-6.1,4.7v0.1
		c0,2.7,1.3,4.2,7.3,5.5c5.9,1.2,8.2,3.2,8.2,6.9v0.1c0,4-3.5,6.8-8.3,6.8C288.2,188.2,284.6,186.7,281.9,184.1"/>
	<polygon class="st1" points="306.4,162.7 324.1,162.7 324.1,164.4 308.2,164.4 308.2,174.3 322.5,174.3 322.5,176 308.2,176 
		308.2,186 324.3,186 324.3,187.7 306.4,187.7 	"/>
	<path class="st1" d="M329.2,175.3L329.2,175.3c0-7.1,5.3-13,12.5-13c3.7-0.1,7.2,1.4,9.7,4l-1.3,1.4c-2.2-2.4-5.2-3.7-8.4-3.7
		c-6,0-10.5,4.9-10.5,11.2v0.1c0,6.3,4.6,11.2,10.5,11.2c3.6,0,6.1-1.4,8.6-3.9l1.3,1.2c-2.7,2.6-5.5,4.4-9.9,4.4
		C334.4,188.1,329.1,182.5,329.2,175.3"/>
	<path class="st1" d="M356.2,177.3v-14.6h1.9v14.4c0,6,3.2,9.3,8.4,9.3c5,0,8.3-3.1,8.3-9.1v-14.6h1.9v14.4c0,7.1-4.2,11-10.2,11
		C360.4,188.1,356.2,184.3,356.2,177.3"/>
	<path class="st1" d="M383.7,162.7h10.5c2.6-0.2,5.1,0.7,7,2.5c1.2,1.2,1.9,2.9,1.9,4.6v0.1c0,4.2-3.2,6.6-7.3,7.1l8.2,10.7h-2.4
		l-8-10.3h-8.2v10.3h-1.9V162.7z M394,175.7c4.2,0,7.3-2.1,7.3-5.7v-0.1c0-3.4-2.6-5.5-7.2-5.5h-8.5v11.2H394z"/>
	<rect x="409.7" y="162.7" class="st1" width="1.9" height="25"/>
	<polygon class="st1" points="426.2,164.4 417.5,164.4 417.5,162.7 436.7,162.7 436.7,164.4 428,164.4 428,187.7 426.2,187.7 	"/>
	<polygon class="st1" points="450.5,177.8 439.8,162.7 442.1,162.7 451.5,176.1 460.9,162.7 463.1,162.7 452.4,177.8 452.4,187.7 
		450.5,187.7 	"/>
	<path class="st1" d="M477,184.1l1.2-1.4c2.3,2.4,5.6,3.8,9,3.7c3.7,0,6.3-2.1,6.3-5v-0.1c0-2.6-1.4-4.2-7.1-5.3
		c-6-1.2-8.4-3.2-8.4-7V169c0-3.7,3.4-6.6,8-6.6c3.1-0.1,6.2,1,8.6,3l-1.2,1.5c-2-1.9-4.7-2.9-7.5-2.8c-3.7,0-6.1,2.1-6.1,4.7v0.1
		c0,2.7,1.4,4.2,7.3,5.5c5.9,1.2,8.2,3.2,8.2,6.9v0.1c0,4-3.5,6.8-8.3,6.8C483.3,188.2,479.7,186.7,477,184.1"/>
	<path class="st1" d="M500.3,175.3L500.3,175.3c0-6.9,5-13,12.6-13c7.6,0,12.5,6,12.5,12.8v0.1c0,6.9-5,12.9-12.6,12.9
		C505.4,188.1,500.4,182.1,500.3,175.3 M523.6,175.3L523.6,175.3c0-6.2-4.5-11.3-10.7-11.3c-6.2,0-10.6,5-10.6,11.2v0.1
		c0,6.2,4.5,11.2,10.7,11.2C519.2,186.5,523.5,181.5,523.6,175.3"/>
	<polygon class="st1" points="531.8,162.7 533.6,162.7 533.6,186 548.3,186 548.3,187.7 531.8,187.7 	"/>
	<path class="st1" d="M552.7,177.3v-14.6h1.9v14.4c0,6,3.2,9.3,8.4,9.3c5,0,8.3-3.1,8.3-9.1v-14.6h1.9v14.4c0,7.1-4.2,11-10.2,11
		C556.9,188.1,552.7,184.3,552.7,177.3"/>
	<polygon class="st1" points="587.2,164.4 578.5,164.4 578.5,162.7 597.7,162.7 597.7,164.4 589,164.4 589,187.7 587.2,187.7 	"/>
	<rect x="603.6" y="162.7" class="st1" width="1.9" height="25"/>
	<path class="st1" d="M612,175.3L612,175.3c0-6.9,5-13,12.6-13c7.6,0,12.5,6,12.5,12.8v0.1c0,6.9-5,12.9-12.6,12.9
		C616.9,188.1,612,182.1,612,175.3 M635.2,175.3L635.2,175.3c0-6.2-4.5-11.3-10.7-11.3c-6.2,0-10.5,5-10.5,11.2v0.1
		c0,6.2,4.5,11.2,10.7,11.2C630.8,186.5,635.3,181.5,635.2,175.3"/>
	<polygon class="st1" points="643.5,162.7 645.2,162.7 662.4,184.5 662.4,162.7 664.2,162.7 664.2,187.7 662.8,187.7 645.2,165.5 
		645.2,187.7 643.5,187.7 	"/>
	<path class="st1" d="M670,184.1l1.2-1.4c2.3,2.4,5.6,3.8,9,3.7c3.7,0,6.3-2.1,6.3-5v-0.1c0-2.6-1.4-4.2-7.1-5.3
		c-6-1.2-8.4-3.2-8.4-7V169c0-3.7,3.4-6.6,8-6.6c3.1-0.1,6.2,1,8.6,3l-1.2,1.5c-2-1.9-4.7-2.9-7.5-2.8c-3.7,0-6.1,2.1-6.1,4.7v0.1
		c0,2.7,1.4,4.2,7.3,5.5c5.9,1.2,8.2,3.2,8.2,6.9v0.1c0,4-3.5,6.8-8.3,6.8C676.3,188.2,672.7,186.7,670,184.1"/>
</g>
<g>
	<path class="st1" d="M15.2,54c0,0,63.3-36.5,144.5-0.4c12.4,98.4-71.2,131.8-71.2,131.8S0.7,148,15.2,54"/>
	<g>
		<defs>
			<path id="SVGID_1_" d="M48.1,153.1C22.4,126,12,93.2,17.5,55.6c12.6-6.2,26.1-10.6,40-12.9c23.1-4.1,59.1-5.2,99.9,12.6
				c4.6,39.3-5.6,72.7-30.3,99.2c-11,11.7-24.1,21.3-38.6,28.1C73.4,175.3,59.7,165.2,48.1,153.1 M56.5,37.8
				c-26.1,4.6-41.9,13.6-42.6,14l-1.1,0.6l-0.2,1.2c-3.4,21.9-1.5,42.5,5.5,61.5c5.9,15.5,14.8,29.7,26.4,41.6
				c12.2,12.9,26.8,23.5,42.9,31l1,0.4l1-0.4c0.9-0.4,21.7-8.8,41.2-29.6c11.3-11.9,20-26.1,25.6-41.6c6.9-19.1,8.9-40.4,6-63.3
				l-0.2-1.4l-1.3-0.6C137.3,40.8,112,35.3,86.4,35.2C76.4,35.2,66.4,36,56.5,37.8"/>
		</defs>
		<clipPath id="SVGID_2_">
			<use xlink:href="#SVGID_1_"  style="overflow:visible;"/>
		</clipPath>
		<g class="st2">
			
				<linearGradient id="SVGID_3_" gradientUnits="userSpaceOnUse" x1="-319.401" y1="-34.9789" x2="-318.8279" y2="-34.9789" gradientTransform="matrix(269.01 0 0 269.01 85932.375 9521.3369)">
				<stop  offset="0" style="stop-color:#E2B885"/>
				<stop  offset="1" style="stop-color:#9A6940"/>
			</linearGradient>
			<rect x="9.3" y="35.2" class="st3" width="155.8" height="153"/>
		</g>
	</g>
	<polygon class="st0" points="88.9,0.3 92.1,10 102.3,10 94,16 97.2,25.8 88.9,19.8 80.6,25.8 83.8,16 75.5,10 85.7,10 	"/>
	<polygon class="st0" points="122.6,9.8 124.7,16.3 131.5,16.3 126,20.3 128.1,26.8 122.6,22.8 117.1,26.8 119.2,20.3 113.7,16.3 
		120.5,16.3 	"/>
	<polygon class="st0" points="155.2,19.2 157.3,25.7 164.1,25.7 158.6,29.7 160.7,36.2 155.2,32.2 149.7,36.2 151.8,29.7 
		146.3,25.7 153.1,25.7 	"/>
	<polygon class="st0" points="19.3,19.2 21.5,25.7 28.3,25.7 22.8,29.7 24.9,36.2 19.3,32.2 13.8,36.2 15.9,29.7 10.4,25.7 
		17.2,25.7 	"/>
	<polygon class="st0" points="51.9,9.8 54.1,16.3 60.9,16.3 55.4,20.3 57.5,26.8 51.9,22.8 46.4,26.8 48.5,20.3 43,16.3 49.8,16.3 	
		"/>
	<g>
		<defs>
			<path id="SVGID_4_" d="M68.5,65.1l3.9,11l0.9-0.4c0,0,0-0.3-3.2-8.6c8.1,3.9,12.3-0.6,17.3-5.7c9.5,12.1,17.5,5.7,17.5,5.7
				l-3.2,9.1l1.2,0.5c0,0,0.5-1.3,3.4-11.4c-12.4,5.2-17.1-5.3-18.9-7.7C79.8,72.7,68.5,65.1,68.5,65.1"/>
		</defs>
		<clipPath id="SVGID_5_">
			<use xlink:href="#SVGID_4_"  style="overflow:visible;"/>
		</clipPath>
		<g class="st4">
			
				<linearGradient id="SVGID_6_" gradientUnits="userSpaceOnUse" x1="-320.245" y1="-30.5119" x2="-319.6853" y2="-30.5119" gradientTransform="matrix(66.76 0 0 66.76 21445.4434 2104.1587)">
				<stop  offset="0" style="stop-color:#9A6940"/>
				<stop  offset="1" style="stop-color:#E2B885"/>
			</linearGradient>
			<rect x="68.5" y="57.6" class="st5" width="37.8" height="19.1"/>
		</g>
	</g>
	<g>
		<defs>
			<path id="SVGID_7_" d="M69.6,63.3c0,0-0.9-0.6-0.8,0.2c9.8,6.5,15.3-2.3,18.5-9.1c7.7,18.3,18.7,9.2,18.7,9.2s-0.3-0.1-0.9-0.2
				C93.6,66.5,90.4,56,87.4,51.2C80.6,68.1,69.6,63.3,69.6,63.3"/>
		</defs>
		<clipPath id="SVGID_8_">
			<use xlink:href="#SVGID_7_"  style="overflow:visible;"/>
		</clipPath>
		<g class="st6">
			
				<linearGradient id="SVGID_9_" gradientUnits="userSpaceOnUse" x1="-320.2627" y1="-30.2648" x2="-319.703" y2="-30.2648" gradientTransform="matrix(65.64 0 0 65.64 21088.6074 2048.521)">
				<stop  offset="0" style="stop-color:#9A6940"/>
				<stop  offset="1" style="stop-color:#E2B885"/>
			</linearGradient>
			<rect x="68.7" y="51.2" class="st7" width="37.3" height="21.5"/>
		</g>
	</g>
	<g>
		<defs>
			<path id="SVGID_10_" d="M66.7,62c0,1,0.8,1.8,1.7,1.8c1,0,1.8-0.8,1.8-1.7c0-1-0.8-1.8-1.7-1.8c0,0,0,0-0.1,0
				C67.5,60.3,66.7,61,66.7,62C66.7,62,66.7,62,66.7,62"/>
		</defs>
		<clipPath id="SVGID_11_">
			<use xlink:href="#SVGID_10_"  style="overflow:visible;"/>
		</clipPath>
		<g class="st8">
			
				<linearGradient id="SVGID_12_" gradientUnits="userSpaceOnUse" x1="-328.6988" y1="25.341" x2="-328.1258" y2="25.341" gradientTransform="matrix(6.28 0 0 6.28 2129.8157 -97.1507)">
				<stop  offset="0" style="stop-color:#9A6940"/>
				<stop  offset="1" style="stop-color:#E2B885"/>
			</linearGradient>
			<rect x="66.7" y="60.2" class="st9" width="3.6" height="3.6"/>
		</g>
	</g>
	<g>
		<defs>
			<path id="SVGID_13_" d="M104.3,62c0,1,0.8,1.8,1.7,1.8s1.8-0.8,1.8-1.7c0-1-0.8-1.8-1.7-1.8c0,0,0,0-0.1,0
				C105.1,60.3,104.3,61,104.3,62C104.3,62,104.3,62,104.3,62"/>
		</defs>
		<clipPath id="SVGID_14_">
			<use xlink:href="#SVGID_13_"  style="overflow:visible;"/>
		</clipPath>
		<g class="st10">
			
				<linearGradient id="SVGID_15_" gradientUnits="userSpaceOnUse" x1="-333.2667" y1="25.341" x2="-332.707" y2="25.341" gradientTransform="matrix(6.28 0 0 6.28 2196.0457 -97.1507)">
				<stop  offset="0" style="stop-color:#9A6940"/>
				<stop  offset="1" style="stop-color:#E2B885"/>
			</linearGradient>
			<rect x="104.3" y="60.2" class="st11" width="3.6" height="3.6"/>
		</g>
	</g>
	<g>
		<defs>
			<path id="SVGID_16_" d="M85.7,49.6c0,1,0.8,1.8,1.8,1.8c1,0,1.8-0.8,1.8-1.8c0-1-0.8-1.8-1.8-1.8c0,0,0,0,0,0
				C86.5,47.8,85.7,48.6,85.7,49.6L85.7,49.6"/>
		</defs>
		<clipPath id="SVGID_17_">
			<use xlink:href="#SVGID_16_"  style="overflow:visible;"/>
		</clipPath>
		<g class="st12">
			
				<linearGradient id="SVGID_18_" gradientUnits="userSpaceOnUse" x1="-331.0065" y1="26.8522" x2="-330.4335" y2="26.8522" gradientTransform="matrix(6.28 0 0 6.28 2163.2356 -119.0206)">
				<stop  offset="0" style="stop-color:#9A6940"/>
				<stop  offset="1" style="stop-color:#E2B885"/>
			</linearGradient>
			<rect x="85.7" y="47.8" class="st13" width="3.6" height="3.6"/>
		</g>
	</g>
	<g>
		<defs>
			<path id="SVGID_19_" d="M77,71.1c0,0.8,0.6,1.4,1.4,1.4c0.8,0,1.4-0.6,1.4-1.4s-0.6-1.4-1.4-1.4c0,0-0.1,0-0.1,0
				C77.6,69.7,77,70.4,77,71.1"/>
		</defs>
		<clipPath id="SVGID_20_">
			<use xlink:href="#SVGID_19_"  style="overflow:visible;"/>
		</clipPath>
		<g class="st14">
			
				<linearGradient id="SVGID_21_" gradientUnits="userSpaceOnUse" x1="-332.7647" y1="40.2136" x2="-332.1917" y2="40.2136" gradientTransform="matrix(4.99 0 0 4.99 1734.6949 -129.5532)">
				<stop  offset="0" style="stop-color:#9A6940"/>
				<stop  offset="1" style="stop-color:#E2B885"/>
			</linearGradient>
			<rect x="77" y="69.7" class="st15" width="2.8" height="2.8"/>
		</g>
	</g>
	<g>
		<defs>
			<path id="SVGID_22_" d="M95.1,71.1c0,0.8,0.6,1.4,1.4,1.4c0.8,0,1.4-0.6,1.4-1.4c0-0.8-0.6-1.4-1.4-1.4
				C95.8,69.7,95.1,70.3,95.1,71.1C95.1,71.1,95.1,71.1,95.1,71.1"/>
		</defs>
		<clipPath id="SVGID_23_">
			<use xlink:href="#SVGID_22_"  style="overflow:visible;"/>
		</clipPath>
		<g class="st16">
			
				<linearGradient id="SVGID_24_" gradientUnits="userSpaceOnUse" x1="-335.5565" y1="40.2136" x2="-334.9834" y2="40.2136" gradientTransform="matrix(4.99 0 0 4.99 1766.7848 -129.5532)">
				<stop  offset="0" style="stop-color:#9A6940"/>
				<stop  offset="1" style="stop-color:#E2B885"/>
			</linearGradient>
			<rect x="95.1" y="69.7" class="st17" width="2.8" height="2.8"/>
		</g>
	</g>
	<g>
		<defs>
			<path id="SVGID_25_" d="M85.5,71.6c0,1.1,0.9,1.9,2,1.9c1.1,0,1.9-0.9,1.9-2c0-1.1-0.9-1.9-1.9-1.9
				C86.4,69.6,85.5,70.5,85.5,71.6"/>
		</defs>
		<clipPath id="SVGID_26_">
			<use xlink:href="#SVGID_25_"  style="overflow:visible;"/>
		</clipPath>
		<g class="st18">
			
				<linearGradient id="SVGID_27_" gradientUnits="userSpaceOnUse" x1="-329.8864" y1="18.5982" x2="-329.3134" y2="18.5982" gradientTransform="matrix(6.85 0 0 6.85 2347.749 -55.8255)">
				<stop  offset="0" style="stop-color:#9A6940"/>
				<stop  offset="1" style="stop-color:#E2B885"/>
			</linearGradient>
			<rect x="85.5" y="69.6" class="st19" width="3.9" height="3.9"/>
		</g>
	</g>
	<g>
		<defs>
			<polygon id="SVGID_28_" points="83.8,71.9 87.4,66.9 90.9,71.9 87.4,64.1 			"/>
		</defs>
		<clipPath id="SVGID_29_">
			<use xlink:href="#SVGID_28_"  style="overflow:visible;"/>
		</clipPath>
		<g class="st20">
			
				<linearGradient id="SVGID_30_" gradientUnits="userSpaceOnUse" x1="-325.057" y1="-5.8057" x2="-324.484" y2="-5.8057" gradientTransform="matrix(12.46 0 0 12.46 4135.5225 140.3532)">
				<stop  offset="0" style="stop-color:#9A6940"/>
				<stop  offset="1" style="stop-color:#E2B885"/>
			</linearGradient>
			<rect x="83.8" y="64.1" class="st21" width="7.1" height="7.8"/>
		</g>
	</g>
	<g>
		<defs>
			<path id="SVGID_31_" d="M91.3,139.8c-1.1,1.3-3.7,1.2-3.7,1.2h-0.2c0,0-2.5,0.1-3.7-1.2c-1.1-1.3-2.2-2.2-3.5-0.4
				c2.5,0.3,4.6,2,5.3,4.4c-0.8-0.8-1.4-1.7-2.8-1.8c0.7,1.2,1.7,4.1,4.7,4h0.1c3,0.1,4-2.7,4.7-4c-1.4,0.1-2,1-2.8,1.8
				c0.8-2.4,2.9-4.1,5.3-4.4c-0.3-0.6-0.9-0.9-1.5-1C92.5,138.4,91.9,139,91.3,139.8 M70.1,111.1c2.5,1.6,6-1.6,3.4-2.9
				c-0.5,1.7-2.9,1.7-2.5,0.4c0.4-0.4,0.5-1,0.2-1.4c-0.1-0.1-0.2-0.2-0.3-0.2c-0.1-0.1-0.2-0.1-0.4-0.1
				C69.4,106.9,67.8,109.6,70.1,111.1 M104.2,107c-0.5,0.3-0.6,0.9-0.3,1.4c0.1,0.1,0.1,0.2,0.2,0.3c0.4,1.3-2,1.3-2.5-0.4
				c-2.7,1.3,0.9,4.5,3.4,2.9c2.2-1.5,0.7-4.3-0.4-4.3C104.5,106.9,104.3,106.9,104.2,107 M96,144.4c0,0,5.6-2,7.3-3.9
				c1.8-1.9,3.4-6.9-4-11.5c6.6,1.2,8,9.6,8,9.6s0.8,13.5-10.7,16c-2,0.5-4,0.3-5.9-0.4c-1.1-0.5-2.2-0.7-3.4-0.7l0,0
				c-1.2,0-2.3,0.2-3.4,0.7c-1.9,0.7-4,0.9-5.9,0.4c-11.4-2.4-10.7-16-10.7-16s1.5-8.4,8-9.6c-7.4,4.6-5.8,9.7-4,11.5
				c1.8,1.9,7.3,3.9,7.3,3.9s-5.5,1-8.9-2.2c0.1,1,0.3,2,0.5,2.9c3.9,1,4.6,1.9,8.8,2.1c-2.5,1-7.9,0.3-7.9,0.3s2.4,2.5,9.4,1.5
				c-0.5,0.9-5.1,1.4-7.5,1.1c1,1.2,2.1,3,9.2,0.5c-0.1,0.7-4.6,2.4-4.6,2.4c1.7,0.5,3.5,0.5,5.2,0c2.3-0.9,1.3-1.2,2.4-1.5
				s0.4-4.9,0.4-4.9s-2.7-0.6-3.5-2.5c-0.8-1.9-8.1-3.5-4.2-10c-0.3,2.6-0.4,3.8,1.5,4.9c0.5-1.3,1.9-1.9,3.2-1.4c0,0,0.1,0,0.1,0
				c2.1,0.5,1.2,1.8,4.6,1.9l0,0c3.4-0.1,2.5-1.3,4.6-1.9c1.3-0.5,2.7,0.1,3.2,1.3c0,0,0,0.1,0,0.1c1.9-1.1,1.7-2.3,1.5-4.9
				c4,6.5-3.3,8.1-4.1,10c-0.9,1.9-3.7,2.6-3.7,2.6s-0.8,4.6,0.4,4.9c1.1,0.3,0.1,0.6,2.4,1.5c1.7,0.5,3.5,0.5,5.2,0
				c0,0-4.5-1.8-4.6-2.4c7.2,2.4,8.3,0.7,9.2-0.5c-2.5,0.3-7-0.2-7.5-1.1c7,0.9,9.4-1.5,9.4-1.5s-5.5,0.8-7.9-0.3
				c4.3-0.2,5-1.1,8.8-2.1c0.3-1,0.5-1.9,0.5-2.9c-1.9,1.6-4.4,2.5-6.9,2.3C97.4,144.6,96.7,144.5,96,144.4 M60,116.3
				c0.5-2.7,1.1-5.3,2-7.9c0,0-1.6,8,1.1,8.9s6.6-0.8,10.1,2.4c-5.8-1-7.4-1-11.2,0.3c-0.4,0.2-0.8,0.3-1.2,0.3
				C59.3,120.3,59.8,118.3,60,116.3 M68.5,114.4c-2.8-1-4.1-6-4.1-6c0.9,2,2.5,3.7,4.5,4.7c3.4,1.9,5.8,2.4,6.5,5.4
				C73.6,116.5,71.1,115.1,68.5,114.4 M106.2,113.1c2-1,3.5-2.7,4.5-4.7c0,0-1.3,5-4,6c-2.7,0.7-5.1,2.2-7,4.2
				C100.4,115.5,102.8,115,106.2,113.1 M112.1,117.3c2.7-0.9,1.1-8.9,1.1-8.9c0.9,2.6,1.5,5.2,2,7.9c0.2,2.5,0.9,4.9-2,3.7
				c-3.8-1.3-5.4-1.3-11.2-0.3C105.5,116.5,109.3,118.1,112.1,117.3 M68.2,108.9c0-0.9-1.3-1.1-2.5-1.1c0,0,3.1-2.3,4.7-2.2
				c1.5,0.2,6.3,1.3,7.7,5.7c1.1,3.8,1.3,5.9,1.1,6.4c-0.2,0.6-3,8-3,8l1.6-10.9c-0.2-0.8-0.5-1.5-0.9-2.1c-0.9,0.2-1.8,0.3-2.8,0.3
				C71.5,113,68.2,112.3,68.2,108.9 M95.9,117.8c-0.2-0.6,0-2.2,1.1-6.4c1.1-4.2,6.2-5.6,7.7-5.7c1.5-0.2,4.7,2.2,4.7,2.2
				c-1.2,0-2.4,0.2-2.5,1.1c0,5-7.2,4.1-8.6,3.8c-0.4,0.7-0.7,1.4-0.9,2.1l1.5,10.9C98.9,125.8,96.1,118.3,95.9,117.8 M65.3,102.2
				c0.6-2.7,4.3-6,7-7.8c0,0-3.1,3.5-3.2,4.3c-0.1,0.7-0.7,1.2,1.3,2.6s4.5,3.4,5,2.7c0.4-0.9,0.6-1.9,0.6-3c0,0,1,6.7,2.6,8.5
				C76,106.5,75.2,102.9,65.3,102.2 M104.8,101.3c2-1.3,1.3-1.9,1.3-2.6c0-0.7-3.2-4.3-3.2-4.3c2.7,1.8,6.4,5.1,7,7.8
				c-9.9,0.7-10.7,4.3-13.2,7.4c1.5-1.9,2.6-8.5,2.6-8.5c0.1,1,0.3,2,0.6,3c0.1,0.1,0.2,0.1,0.3,0.1
				C101,104.2,103.1,102.5,104.8,101.3 M55.2,126.3c-0.7-5.8-1.2-11.7-1.3-17.6c0-3.3,1.4-6.7,10-15.5c0,0-3.3,6.4-2.9,8.3
				c0.4,1.9,2.9,3.4,2.9,3.4s-4.7-1.3-6,0.5s-1.5,6.7-1.2,13c0.4,2.6,1.7,3.5,5.4,5.1c2.2,1,4.5,1.7,6.8,2.3c0,0-7.8-0.1-9.9-1.5
				c-0.9,0.9-0.9,5.2,4.5,9.3C61.5,133,55.8,130,55.2,126.3 M114.1,101.6c0.4-1.9-2.9-8.3-2.9-8.3c8.5,8.8,9.9,12.2,10,15.5
				c-0.1,5.9-0.6,11.8-1.3,17.6c-0.6,3.8-6.3,6.7-8.3,7.3c5.5-4.2,5.5-8.6,4.6-9.4c-2,1.3-9.9,1.5-9.9,1.5c2.3-0.5,4.6-1.3,6.8-2.3
				c3.7-1.7,5.1-2.5,5.4-5.1c0.3-6.4,0.1-11.1-1.2-13c-1.3-1.9-6-0.5-6-0.5S113.8,103.4,114.1,101.6 M52.4,136.3
				c-0.5-0.3-0.7-1-0.5-2.5s-1.7-4.3-2.6-5.2c-1.2-1.1-1.7-2.7-1.2-4.3c0.5-2.3-0.5-10.5-1.3-14.5c-0.8-4,2.9-10.8,4.2-13.5
				c1.3-2.7,11.2-8.4,11.2-8.4s-2.3,1.8-8.8,9.8C46.1,109,52,129.3,55,134.6c3,5.3,6.2,4,6.2,4l3,4.7c-3.3-2.9-5.9-2.8-7.6-0.4
				C56.3,140.1,54.8,137.7,52.4,136.3 M119.7,134.6c3-5.3,8.8-25.5,1.6-36.8c-6.5-8-8.8-9.8-8.8-9.8s9.9,5.7,11.2,8.4
				c1.3,2.7,5.1,9.5,4.2,13.5c-0.9,4-1.9,12.2-1.3,14.5c0.5,1.5,0,3.2-1.2,4.3c-0.9,0.9-2.8,3.7-2.6,5.2c0.2,1.5,0,2.2-0.5,2.5
				c-2.4,1.3-4,3.8-4.3,6.5c-1.7-2.4-4.2-2.5-7.6,0.4l3-4.7c0.3,0.1,0.6,0.1,0.9,0.1C115.5,138.7,117.6,138.1,119.7,134.6
				 M105.2,82.3c-4.8-1.4-9.8-2.3-14.8-2.6l0.1,3.5c0,0,11.1-0.1,18.9,5.4c-13.8-2.9-19.3-2.8-19.3-2.8V89c3.4,0.3,6.7,1.3,9.8,2.8
				c-8.2-1.4-16.5-1.4-24.7,0c3.2-1.7,6.7-2.7,10.3-3l-0.2-3.3c0,0-13.4,0.6-19.5,3.2c2.9-3,9.9-5,19.4-6l-0.3-3.3
				c-5.3,0.1-10.6,1-15.6,2.7C69.3,82.2,86.3,70.7,105.2,82.3 M118.5,78.5c-2.8,1.2-5.3,1.6-6.4,1.2c-4.7-2.1-9.6-3.7-14.6-4.7
				c-3.3-0.5-6.7-0.4-10,0.3c-3.4-0.9-7-1-10.5-0.3c-5,1.1-10,2.7-14.7,4.8c-1.1,0.5-3.6,0-6.4-1.2c-3.1-1.3-5.8-3.2-8.1-5.6
				c-3.4,6.8-3.3,12.2-2.3,16c0.5,2.1,1.5,4.1,2.8,5.8c0,0-8.7,9-4.7,32.3l3.8-7.2c0,0-5.1,12.3,5.8,25.2l-0.8-7.7
				c0,0,1.8,8.2,12.4,17.3c0-2.2-0.2-4.4-0.6-6.6c0,0,5.9,5,6.8,11.8c1.5-2.2,0.5-3.3,0.5-3.3c1.8,1.3,2.5,3.5,2,5.6
				c1.2-0.8,2-2.1,2.1-3.5c1.3,2.1,3,4,5,5.5c-0.2-1.1-0.5-2.2-0.9-3.2c1,1.1,2.3,2.1,3.6,2.9l1.5-2.4l2.8,4.2l2.6-4.1
				c0.5,0.9,1.2,1.7,2.1,2.4l1.9-2.9c0,0,0.3,0.3-0.3,3.3c2-1.4,3.5-3.3,4.5-5.5c0.1,1.4,0.9,2.7,2.1,3.5c-0.5-2.1,0.2-4.3,2-5.6
				c0,0-1,1.1,0.6,3.3c0.9-6.8,6.8-11.8,6.8-11.8c-0.4,2.2-0.6,4.4-0.6,6.6c10.7-9.1,12.4-17.3,12.4-17.3l-0.8,7.7
				c10.9-12.9,5.8-25.2,5.8-25.2l3.9,7.2c4.1-23.3-4.7-32.4-4.7-32.4c1.4-1.7,2.3-3.7,2.8-5.8c1-3.8,1.1-9.2-2.3-16
				C124.4,75.3,121.6,77.2,118.5,78.5"/>
		</defs>
		<clipPath id="SVGID_32_">
			<use xlink:href="#SVGID_31_"  style="overflow:visible;"/>
		</clipPath>
		<g class="st22">
			
				<linearGradient id="SVGID_33_" gradientUnits="userSpaceOnUse" x1="-319.5965" y1="-34.106" x2="-319.0235" y2="-34.106" gradientTransform="matrix(157.47 0 0 157.47 50368.9453 5488.8579)">
				<stop  offset="0" style="stop-color:#9A6940"/>
				<stop  offset="1" style="stop-color:#E2B885"/>
			</linearGradient>
			<rect x="39.7" y="70.7" class="st23" width="95.2" height="94.9"/>
		</g>
	</g>
</g>
</svg>
