<svg id="Layer_1" data-name="Layer 1" xmlns="http://www.w3.org/2000/svg" xmlns:xlink="http://www.w3.org/1999/xlink" viewBox="0 0 133.88 26.72"><defs><style>.cls-1{fill:none;}.cls-2{fill:#daa16a;}.cls-3{fill:#0c2d48;}.cls-4{clip-path:url(#clip-path);}.cls-5{fill:url(#linear-gradient);}.cls-6{clip-path:url(#clip-path-2);}.cls-7{fill:url(#linear-gradient-2);}.cls-8{clip-path:url(#clip-path-3);}.cls-9{fill:url(#linear-gradient-3);}.cls-10{clip-path:url(#clip-path-4);}.cls-11{fill:url(#linear-gradient-4);}.cls-12{clip-path:url(#clip-path-5);}.cls-13{fill:url(#linear-gradient-5);}.cls-14{clip-path:url(#clip-path-6);}.cls-15{fill:url(#linear-gradient-6);}.cls-16{clip-path:url(#clip-path-7);}.cls-17{fill:url(#linear-gradient-7);}.cls-18{clip-path:url(#clip-path-8);}.cls-19{fill:url(#linear-gradient-8);}.cls-20{clip-path:url(#clip-path-9);}.cls-21{fill:url(#linear-gradient-9);}.cls-22{clip-path:url(#clip-path-10);}.cls-23{fill:url(#linear-gradient-10);}.cls-24{clip-path:url(#clip-path-11);}.cls-25{fill:url(#linear-gradient-11);}</style><clipPath id="clip-path" transform="translate(-2.09 -2.64)"><path class="cls-1" d="M7.6,24.37A15.94,15.94,0,0,1,3.25,10.5,20.27,20.27,0,0,1,8.93,8.68a24.6,24.6,0,0,1,14.22,1.79c.66,5.6-.79,10.34-4.32,14.11a17.88,17.88,0,0,1-5.48,4A20.36,20.36,0,0,1,7.6,24.37M8.8,8a19.82,19.82,0,0,0-6.06,2l-.15.08,0,.17A17.25,17.25,0,0,0,3.35,19,17.32,17.32,0,0,0,7.1,24.89a20.61,20.61,0,0,0,6.1,4.41l.14.06.14-.05a18.19,18.19,0,0,0,5.85-4.22A17.07,17.07,0,0,0,23,19.18a19.38,19.38,0,0,0,.85-9l0-.2-.19-.08A26,26,0,0,0,13,7.6,25,25,0,0,0,8.81,8"/></clipPath><linearGradient id="linear-gradient" x1="-650.34" y1="-139.38" x2="-650.26" y2="-139.38" gradientTransform="translate(174948.8 37511.21) scale(269.01)" gradientUnits="userSpaceOnUse"><stop offset="0" stop-color="#e2b885"/><stop offset="1" stop-color="#9a6940"/></linearGradient><clipPath id="clip-path-2" transform="translate(-2.09 -2.64)"><path class="cls-1" d="M10.5,11.86l.56,1.57.12,0s0-.05-.45-1.22c1.15.55,1.75-.09,2.46-.82,1.36,1.73,2.49.82,2.49.82l-.45,1.28.17.08s.07-.19.48-1.62a2,2,0,0,1-2.68-1.1c-1.09,2.14-2.7,1.06-2.7,1.06"/></clipPath><linearGradient id="linear-gradient-2" x1="-648.25" y1="-134.22" x2="-648.17" y2="-134.22" gradientTransform="translate(43285.29 8969.87) scale(66.76)" gradientUnits="userSpaceOnUse"><stop offset="0" stop-color="#9a6940"/><stop offset="1" stop-color="#e2b885"/></linearGradient><clipPath id="clip-path-3" transform="translate(-2.09 -2.64)"><path class="cls-1" d="M10.66,11.61s-.12-.09-.1,0c1.39.93,2.17-.33,2.63-1.3,1.1,2.61,2.66,1.31,2.66,1.31l-.13,0c-1.64.45-2.11-1-2.53-1.73-1,2.41-2.53,1.73-2.53,1.73"/></clipPath><linearGradient id="linear-gradient-3" x1="-648.21" y1="-133.89" x2="-648.13" y2="-133.89" gradientTransform="translate(42556.45 8797.25) scale(65.64)" xlink:href="#linear-gradient-2"/><clipPath id="clip-path-4" transform="translate(-2.09 -2.64)"><path class="cls-1" d="M10.25,11.42a.26.26,0,0,0,.25.26.26.26,0,0,0,0-.51h0a.25.25,0,0,0-.25.25h0"/></clipPath><linearGradient id="linear-gradient-4" x1="-616.79" y1="-70.53" x2="-616.71" y2="-70.53" gradientTransform="translate(3881.46 451.68) scale(6.28)" xlink:href="#linear-gradient-2"/><clipPath id="clip-path-5" transform="translate(-2.09 -2.64)"><path class="cls-1" d="M15.59,11.42a.26.26,0,0,0,.51,0,.26.26,0,0,0-.25-.26h0a.25.25,0,0,0-.25.25h0"/></clipPath><linearGradient id="linear-gradient-5" x1="-626.49" y1="-70.53" x2="-626.41" y2="-70.53" gradientTransform="translate(3947.69 451.68) scale(6.28)" xlink:href="#linear-gradient-2"/><clipPath id="clip-path-6" transform="translate(-2.09 -2.64)"><path class="cls-1" d="M13,9.65a.25.25,0,1,0,.5,0,.26.26,0,0,0-.25-.26h0a.25.25,0,0,0-.25.25h0"/></clipPath><linearGradient id="linear-gradient-6" x1="-621.69" y1="-67.32" x2="-621.6" y2="-67.32" gradientTransform="translate(3914.88 429.81) scale(6.28)" xlink:href="#linear-gradient-2"/><clipPath id="clip-path-7" transform="translate(-2.09 -2.64)"><path class="cls-1" d="M11.72,12.71a.2.2,0,0,0,.2.21.22.22,0,0,0,.2-.21.2.2,0,0,0-.2-.2h0a.21.21,0,0,0-.19.2"/></clipPath><linearGradient id="linear-gradient-7" x1="-610.95" y1="-55" x2="-610.87" y2="-55" gradientTransform="translate(3057.87 284.54) scale(4.99)" xlink:href="#linear-gradient-2"/><clipPath id="clip-path-8" transform="translate(-2.09 -2.64)"><path class="cls-1" d="M14.29,12.71a.2.2,0,0,0,.2.21.2.2,0,0,0,.2-.21.19.19,0,0,0-.2-.2.2.2,0,0,0-.2.2h0"/></clipPath><linearGradient id="linear-gradient-8" x1="-616.86" y1="-55" x2="-616.78" y2="-55" gradientTransform="translate(3089.96 284.54) scale(4.99)" xlink:href="#linear-gradient-2"/><clipPath id="clip-path-9" transform="translate(-2.09 -2.64)"><path class="cls-1" d="M12.92,12.78a.29.29,0,0,0,.29.27.28.28,0,0,0,.27-.28.28.28,0,0,0-.28-.27.28.28,0,0,0-.28.27"/></clipPath><linearGradient id="linear-gradient-9" x1="-624.46" y1="-79.18" x2="-624.37" y2="-79.18" gradientTransform="translate(4288.72 552.54) scale(6.85)" xlink:href="#linear-gradient-2"/><clipPath id="clip-path-10" transform="translate(-2.09 -2.64)"><polygon class="cls-1" points="12.69 12.83 13.2 12.11 13.69 12.83 13.2 11.72 12.69 12.83"/></clipPath><linearGradient id="linear-gradient-10" x1="-636.36" y1="-106.34" x2="-636.28" y2="-106.34" gradientTransform="translate(7939.83 1334.66) scale(12.46)" xlink:href="#linear-gradient-2"/><clipPath id="clip-path-11" transform="translate(-2.09 -2.64)"><path class="cls-1" d="M13.75,22.48a.75.75,0,0,1-.53.17h0a.73.73,0,0,1-.52-.17c-.16-.18-.31-.31-.5-.05a.89.89,0,0,1,.75.62c-.12-.12-.2-.24-.4-.26.1.18.24.58.67.57h0c.42,0,.57-.38.67-.57-.21,0-.29.14-.41.26a.91.91,0,0,1,.76-.62.3.3,0,0,0-.21-.15c-.11,0-.19.09-.29.2m-3-4.07c.35.23.86-.23.48-.42-.07.25-.41.25-.36.06a.14.14,0,0,0,0-.2l0,0h-.05a.33.33,0,0,0-.06.6m4.86-.59a.16.16,0,0,0-.05.21l0,0c.06.19-.29.19-.36-.06-.38.18.14.65.49.41a.34.34,0,0,0-.06-.6h-.05m-1.17,5.32a3.8,3.8,0,0,0,1-.54c.26-.27.49-1-.57-1.65.94.18,1.14,1.37,1.14,1.37s.11,1.93-1.52,2.28a1.35,1.35,0,0,1-.84-.06,1.11,1.11,0,0,0-.48-.09h0a1.11,1.11,0,0,0-.48.09,1.35,1.35,0,0,1-.84.06c-1.62-.35-1.52-2.28-1.52-2.28s.21-1.19,1.14-1.37c-1.06.66-.83,1.38-.57,1.65a3.8,3.8,0,0,0,1,.54,1.62,1.62,0,0,1-1.26-.31,2.07,2.07,0,0,0,.08.42,4.3,4.3,0,0,0,1.26.29,3,3,0,0,1-1.13,0s.35.36,1.34.22c-.07.14-.72.2-1.07.16.14.18.3.42,1.32.08,0,.09-.65.34-.65.34a1.3,1.3,0,0,0,.73,0c.32-.13.18-.18.34-.21s.05-.69.05-.69a.77.77,0,0,1-.49-.36c-.12-.26-1.16-.5-.6-1.42,0,.36-.06.54.21.69a.36.36,0,0,1,.45-.21h0c.29.07.17.25.65.26h0c.47,0,.35-.19.65-.26a.35.35,0,0,1,.46.19h0c.27-.15.25-.33.21-.69.57.92-.46,1.15-.59,1.42s-.53.36-.53.36-.11.66.05.69,0,.09.34.22a1.33,1.33,0,0,0,.74,0s-.64-.25-.65-.35c1,.35,1.18.1,1.31-.07-.35,0-1,0-1.07-.16,1,.13,1.35-.22,1.35-.22a3,3,0,0,1-1.13,0,4.3,4.3,0,0,0,1.26-.3,1.85,1.85,0,0,0,.07-.41,1.39,1.39,0,0,1-1,.33,1.37,1.37,0,0,1-.28,0m-5.13-4A7.06,7.06,0,0,1,9.57,18s-.23,1.13.16,1.26.94-.11,1.44.34a2.63,2.63,0,0,0-1.6.05.47.47,0,0,1-.17,0c-.21,0-.14-.28-.11-.57m1.21-.27c-.4-.14-.58-.85-.58-.85a1.43,1.43,0,0,0,.64.67c.48.27.83.35.93.78a2.08,2.08,0,0,0-1-.6m5.36-.18A1.43,1.43,0,0,0,16.5,18s-.18.71-.57.85a2.06,2.06,0,0,0-1,.59c.1-.43.44-.5.93-.77m.83.59c.38-.12.16-1.26.16-1.26a7.06,7.06,0,0,1,.28,1.12c0,.35.13.7-.28.53a2.55,2.55,0,0,0-1.6-.05c.5-.45,1-.22,1.44-.34m-6.24-1.19c0-.13-.19-.15-.35-.16,0,0,.45-.33.66-.3a1.29,1.29,0,0,1,1.09.81,2.53,2.53,0,0,1,.16.92l-.43,1.13.22-1.55a.79.79,0,0,0-.12-.3,2.69,2.69,0,0,1-.4,0c-.36,0-.83-.1-.83-.58m3.94,1.26a2.62,2.62,0,0,1,.16-.91,1.34,1.34,0,0,1,1.09-.82c.22,0,.67.31.67.31-.17,0-.35,0-.36.16,0,.72-1,.59-1.22.55a1,1,0,0,0-.13.3l.22,1.56-.43-1.14m-4.35-2.22A2.35,2.35,0,0,1,11,16a3.59,3.59,0,0,0-.46.6c0,.1-.1.17.19.37s.64.48.71.39a1.58,1.58,0,0,0,.09-.42,3.78,3.78,0,0,0,.36,1.21,2,2,0,0,0-1.88-1.05M15.67,17c.29-.19.19-.27.19-.37a3.12,3.12,0,0,0-.45-.6,2.58,2.58,0,0,1,1,1.1,2,2,0,0,0-1.89,1.05A3.94,3.94,0,0,0,14.88,17a1.06,1.06,0,0,0,.09.42.05.05,0,0,0,0,0,2.75,2.75,0,0,0,.66-.41M8.61,20.57c-.1-.83-.16-1.67-.18-2.5,0-.47.2-.95,1.41-2.21A3.75,3.75,0,0,0,9.42,17c.06.26.42.48.42.48s-.66-.19-.85.06a3.69,3.69,0,0,0-.17,1.85c0,.37.24.49.77.73a4.6,4.6,0,0,0,1,.32,4.28,4.28,0,0,1-1.41-.21C9,20.39,9,21,9.8,21.59c-.29-.08-1.1-.49-1.19-1M17,17.05a3.61,3.61,0,0,0-.41-1.19C17.79,17.12,18,17.6,18,18.07a23.36,23.36,0,0,1-.19,2.51c-.08.53-.89.94-1.18,1,.78-.6.78-1.22.65-1.34a4.53,4.53,0,0,1-1.41.21,4.6,4.6,0,0,0,1-.32c.53-.24.72-.36.78-.73a3.78,3.78,0,0,0-.18-1.85c-.19-.26-.85-.06-.85-.06s.36-.22.42-.48M8.21,22c-.07,0-.11-.14-.07-.36s-.25-.61-.37-.74a.57.57,0,0,1-.17-.6,8.53,8.53,0,0,0-.19-2.06A4,4,0,0,1,8,16.3,6.69,6.69,0,0,1,9.6,15.1a11.41,11.41,0,0,0-1.24,1.4c-1,1.61-.21,4.49.22,5.24s.88.57.88.57l.42.66c-.47-.41-.83-.4-1.07,0a1.2,1.2,0,0,0-.6-.93m9.57-.25C18.21,21,19,18.11,18,16.5a11.76,11.76,0,0,0-1.25-1.4,6.9,6.9,0,0,1,1.59,1.2,4,4,0,0,1,.6,1.93,7.63,7.63,0,0,0-.19,2.06.58.58,0,0,1-.17.6,1.31,1.31,0,0,0-.37.74c0,.22,0,.32-.07.36a1.18,1.18,0,0,0-.6.93c-.25-.34-.61-.36-1.08,0l.42-.66.13,0c.16,0,.46-.08.76-.59M15.72,14.3a8.88,8.88,0,0,0-2.11-.36l0,.49a5.17,5.17,0,0,1,2.69.77,13.77,13.77,0,0,0-2.74-.4v.46a3.82,3.82,0,0,1,1.39.4,10.4,10.4,0,0,0-3.52,0,3.74,3.74,0,0,1,1.46-.43l0-.46a11.21,11.21,0,0,0-2.78.46,5.09,5.09,0,0,1,2.76-.86l0-.46a7.34,7.34,0,0,0-2.22.38,4.89,4.89,0,0,1,5.11,0m1.9-.53a1.53,1.53,0,0,1-.91.17,10,10,0,0,0-2.07-.68,4.58,4.58,0,0,0-1.43,0,3.41,3.41,0,0,0-1.49,0,10.89,10.89,0,0,0-2.09.69,1.54,1.54,0,0,1-.91-.17A3.27,3.27,0,0,1,7.57,13a3.18,3.18,0,0,0-.32,2.27,2.07,2.07,0,0,0,.4.83S6.41,17.36,7,20.67l.54-1a3.64,3.64,0,0,0,.83,3.59l-.11-1.1A5.19,5.19,0,0,0,10,24.6a5,5,0,0,0-.09-.94,3,3,0,0,1,1,1.69c.22-.32.07-.47.07-.47a.75.75,0,0,1,.29.8.7.7,0,0,0,.3-.5,2.74,2.74,0,0,0,.71.77,3.74,3.74,0,0,0-.12-.45,2.09,2.09,0,0,0,.52.41l.21-.35.4.6.36-.59a1.22,1.22,0,0,0,.3.34l.26-.42s.05.05,0,.47a1.84,1.84,0,0,0,.63-.78.68.68,0,0,0,.3.5.75.75,0,0,1,.29-.8s-.15.15.07.47a3,3,0,0,1,1-1.68,7.32,7.32,0,0,0-.09.93,5.12,5.12,0,0,0,1.76-2.46L18,23.24a3.61,3.61,0,0,0,.83-3.59l.54,1c.59-3.31-.67-4.6-.67-4.6a2.39,2.39,0,0,0,.41-.83A3.17,3.17,0,0,0,18.77,13a3.18,3.18,0,0,1-1.15.8"/></clipPath><linearGradient id="linear-gradient-11" x1="-649.86" y1="-138.52" x2="-649.78" y2="-138.52" gradientTransform="translate(102337.78 21828.85) scale(157.47)" xlink:href="#linear-gradient-2"/></defs><title>logo_mobile</title><path class="cls-2" d="M35,10v2.28H34a4.74,4.74,0,0,0-.4-.93,1.45,1.45,0,0,0-.4-.38,1.6,1.6,0,0,0-.78-.14H30.86v3.45h.95a1,1,0,0,0,.49-.09.72.72,0,0,0,.3-.3,2.87,2.87,0,0,0,.23-.64h.81v2.91h-.81a2.38,2.38,0,0,0-.23-.63.74.74,0,0,0-.29-.32,1.06,1.06,0,0,0-.5-.09h-.95V19h1.56a3,3,0,0,0,.42,0,1.15,1.15,0,0,0,.31-.11.92.92,0,0,0,.26-.22,1.63,1.63,0,0,0,.23-.29,4.09,4.09,0,0,0,.2-.42c.07-.17.15-.41.24-.71h1l-.14,2.62H27.86v-.47a1.92,1.92,0,0,0,.42-.16.54.54,0,0,0,.23-.22,1,1,0,0,0,.1-.38c0-.16,0-.34,0-.57V11.83a4.88,4.88,0,0,0,0-.57.92.92,0,0,0-.09-.37.66.66,0,0,0-.23-.24,1.72,1.72,0,0,0-.43-.16V10Z" transform="translate(-2.09 -2.64)"/><path class="cls-2" d="M42.68,11.83a3.83,3.83,0,0,0,0-.76.64.64,0,0,0-.19-.34,1.28,1.28,0,0,0-.53-.24V10h3.17v.48a1.44,1.44,0,0,0-.41.15.51.51,0,0,0-.23.23.86.86,0,0,0-.1.38,4.71,4.71,0,0,0,0,.57v4.47a6.23,6.23,0,0,1-.15,1.49,2.85,2.85,0,0,1-.44,1,2.4,2.4,0,0,1-.76.66,3.69,3.69,0,0,1-1,.36,6.71,6.71,0,0,1-1.26.11A6.24,6.24,0,0,1,39,19.73a2.74,2.74,0,0,1-1.14-.64,2.69,2.69,0,0,1-.65-1A4.65,4.65,0,0,1,37,16.48V11.83a4.88,4.88,0,0,0,0-.57,1.12,1.12,0,0,0-.09-.37.76.76,0,0,0-.23-.24,2.23,2.23,0,0,0-.43-.16V10H40v.48a1.49,1.49,0,0,0-.44.17.6.6,0,0,0-.21.21,1,1,0,0,0-.1.34q0,.3,0,.6v4.74a6,6,0,0,0,.08,1,2,2,0,0,0,.26.8,1.3,1.3,0,0,0,.52.52,1.87,1.87,0,0,0,.87.19,1.72,1.72,0,0,0,1.1-.3,1.56,1.56,0,0,0,.5-.82,6.43,6.43,0,0,0,.15-1.57Z" transform="translate(-2.09 -2.64)"/><path class="cls-2" d="M50.07,19.82H46.3v-.47a2.41,2.41,0,0,0,.42-.16A.54.54,0,0,0,47,19a1,1,0,0,0,.09-.38,4.8,4.8,0,0,0,0-.57V11.83c0-.22,0-.41,0-.57a.93.93,0,0,0-.1-.37.59.59,0,0,0-.23-.24,2.14,2.14,0,0,0-.42-.16V10h4.18a8.57,8.57,0,0,1,1.44.12,3.89,3.89,0,0,1,1,.36,2.14,2.14,0,0,1,1,1.21,2.81,2.81,0,0,1,.14.95,2.74,2.74,0,0,1-.24,1.2,2.4,2.4,0,0,1-.67.84,5,5,0,0,1-1.12.63v.07A2.56,2.56,0,0,1,53,16a3.79,3.79,0,0,1,.63,1l.46,1a4,4,0,0,0,.6,1,1.21,1.21,0,0,0,.7.4v.47H52.59a11.74,11.74,0,0,1-1-1.7l-.56-1.23a5,5,0,0,0-.43-.78,1.1,1.1,0,0,0-.37-.31,1.49,1.49,0,0,0-.59-.09h-.41V18a3.78,3.78,0,0,0,0,.75.8.8,0,0,0,.19.35,1.48,1.48,0,0,0,.53.23Zm-.78-8.94v4H50a2.53,2.53,0,0,0,1-.15,1.43,1.43,0,0,0,.59-.44,1.55,1.55,0,0,0,.3-.65,3.66,3.66,0,0,0,.09-.81,2.06,2.06,0,0,0-.47-1.47,1.74,1.74,0,0,0-1.36-.49,7.6,7.6,0,0,0-.81,0" transform="translate(-2.09 -2.64)"/><path class="cls-2" d="M60,19.94a3.94,3.94,0,0,1-3.17-1.24,5.56,5.56,0,0,1-1-3.69,6.67,6.67,0,0,1,.51-2.76A3.75,3.75,0,0,1,57.8,10.5a4.56,4.56,0,0,1,2.37-.59,4,4,0,0,1,3.22,1.23,5.4,5.4,0,0,1,1.08,3.66,7.37,7.37,0,0,1-.32,2.33,4.08,4.08,0,0,1-.91,1.59,3.49,3.49,0,0,1-1.41.92,5.21,5.21,0,0,1-1.83.3m-2-5.12A7.56,7.56,0,0,0,58.57,18a1.69,1.69,0,0,0,1.59,1.06,1.48,1.48,0,0,0,1-.3,2.16,2.16,0,0,0,.63-.83,4.59,4.59,0,0,0,.34-1.27,10.79,10.79,0,0,0,.1-1.61,10.71,10.71,0,0,0-.24-2.39,3.17,3.17,0,0,0-.68-1.46,1.48,1.48,0,0,0-1.17-.49,1.63,1.63,0,0,0-1.54,1A7,7,0,0,0,58,14.81" transform="translate(-2.09 -2.64)"/><path class="cls-2" d="M70.05,17.4a2.45,2.45,0,0,0,.6,1.28,1.67,1.67,0,0,0,1.23.42,2,2,0,0,0,.76-.15,1.1,1.1,0,0,0,.54-.46,1.41,1.41,0,0,0,.21-.8,1.7,1.7,0,0,0-.17-.77,1.86,1.86,0,0,0-.53-.62,6.66,6.66,0,0,0-1-.63,8.49,8.49,0,0,1-1-.58,4,4,0,0,1-.77-.66,2.65,2.65,0,0,1-.49-.8,2.25,2.25,0,0,1-.18-1,2.49,2.49,0,0,1,.44-1.5,2.69,2.69,0,0,1,1.26-.95,5.51,5.51,0,0,1,1.93-.32c.4,0,.81,0,1.22.07a12,12,0,0,1,1.33.25v2.09h-1a3.18,3.18,0,0,0-.35-.9,1.41,1.41,0,0,0-.53-.5,1.79,1.79,0,0,0-.79-.15,1.68,1.68,0,0,0-.74.14,1.18,1.18,0,0,0-.51.43,1.25,1.25,0,0,0-.19.68,1.5,1.5,0,0,0,.17.72,1.83,1.83,0,0,0,.54.6,8.21,8.21,0,0,0,1.1.66,6.8,6.8,0,0,1,1.39.91,2.66,2.66,0,0,1,1,2.17,2.84,2.84,0,0,1-.41,1.53,2.64,2.64,0,0,1-1.19,1,4.49,4.49,0,0,1-1.81.35c-.51,0-1,0-1.53-.09a12.83,12.83,0,0,1-1.49-.24V17.4Z" transform="translate(-2.09 -2.64)"/><path class="cls-2" d="M83.82,10v2.28h-1a4.5,4.5,0,0,0-.4-.93A1.45,1.45,0,0,0,82,11a1.6,1.6,0,0,0-.78-.14H79.69v3.45h1a1.08,1.08,0,0,0,.5-.09.79.79,0,0,0,.3-.3,2.85,2.85,0,0,0,.22-.64h.81v2.91h-.81a2.8,2.8,0,0,0-.23-.63.74.74,0,0,0-.29-.32,1.08,1.08,0,0,0-.5-.09h-1V19h1.56a2,2,0,0,0,.42,0,1.15,1.15,0,0,0,.31-.11.92.92,0,0,0,.26-.22,2,2,0,0,0,.22-.29,2.74,2.74,0,0,0,.21-.42,5.88,5.88,0,0,0,.23-.71h1l-.14,2.62h-7v-.47a1.92,1.92,0,0,0,.42-.16.54.54,0,0,0,.23-.22,1,1,0,0,0,.1-.38c0-.16,0-.34,0-.57V11.83a4.88,4.88,0,0,0,0-.57.92.92,0,0,0-.09-.37.76.76,0,0,0-.23-.24,1.72,1.72,0,0,0-.43-.16V10Z" transform="translate(-2.09 -2.64)"/><path class="cls-2" d="M92.18,10.25v2.08h-1a2.49,2.49,0,0,0-.54-1.19,1.29,1.29,0,0,0-1-.38A1.83,1.83,0,0,0,88,11.84a7.45,7.45,0,0,0-.58,3.23,6.79,6.79,0,0,0,.53,3,1.69,1.69,0,0,0,1.56,1,2,2,0,0,0,.86-.17,1.33,1.33,0,0,0,.52-.53,3.52,3.52,0,0,0,.34-1h1v2.17q-.8.18-1.44.27a10.35,10.35,0,0,1-1.36.09A4.87,4.87,0,0,1,87,19.4a3.17,3.17,0,0,1-1.39-1.63A7.22,7.22,0,0,1,85.11,15a6.46,6.46,0,0,1,.53-2.71,3.89,3.89,0,0,1,1.55-1.78,4.57,4.57,0,0,1,2.45-.62A9.73,9.73,0,0,1,91,10a10.78,10.78,0,0,1,1.23.26" transform="translate(-2.09 -2.64)"/><path class="cls-2" d="M99.8,11.83a3.84,3.84,0,0,0,0-.76.72.72,0,0,0-.19-.34,1.32,1.32,0,0,0-.54-.24V10h3.17v.48a1.56,1.56,0,0,0-.41.15.54.54,0,0,0-.23.22.86.86,0,0,0-.1.38,4.45,4.45,0,0,0,0,.57v4.48a6.78,6.78,0,0,1-.14,1.49,2.85,2.85,0,0,1-.44,1,2.4,2.4,0,0,1-.76.66,3.52,3.52,0,0,1-1,.36,6.53,6.53,0,0,1-1.25.11,6.26,6.26,0,0,1-1.73-.21A2.77,2.77,0,0,1,95,19.09a2.6,2.6,0,0,1-.66-1,4.92,4.92,0,0,1-.21-1.57V11.83c0-.22,0-.41,0-.57a.78.78,0,0,0-.09-.37.59.59,0,0,0-.23-.24,2.23,2.23,0,0,0-.43-.16V10h3.77v.48a1.33,1.33,0,0,0-.43.17.6.6,0,0,0-.21.21.83.83,0,0,0-.1.34,4.17,4.17,0,0,0,0,.61v4.74a7,7,0,0,0,.08,1,2.21,2.21,0,0,0,.26.8,1.3,1.3,0,0,0,.53.51,1.85,1.85,0,0,0,.87.19,1.69,1.69,0,0,0,1.09-.3,1.58,1.58,0,0,0,.5-.83,5.94,5.94,0,0,0,.15-1.57Z" transform="translate(-2.09 -2.64)"/><path class="cls-2" d="M107.19,19.82h-3.77v-.47a1.92,1.92,0,0,0,.42-.16.54.54,0,0,0,.23-.22,1,1,0,0,0,.1-.38c0-.16,0-.34,0-.57V11.83c0-.22,0-.41,0-.57a.92.92,0,0,0-.09-.37.59.59,0,0,0-.23-.24,2.23,2.23,0,0,0-.43-.16V10h4.19a8.75,8.75,0,0,1,1.44.12,3.87,3.87,0,0,1,1,.35,2.21,2.21,0,0,1,.63.51,2.37,2.37,0,0,1,.4.71,3.41,3.41,0,0,1,.14.95,2.75,2.75,0,0,1-.25,1.2,2.4,2.4,0,0,1-.67.84,4.74,4.74,0,0,1-1.12.63v.07a2.56,2.56,0,0,1,.88.62,3.91,3.91,0,0,1,.62,1l.46,1a3.87,3.87,0,0,0,.59,1,1.27,1.27,0,0,0,.71.4v.48h-2.76a10.2,10.2,0,0,1-1-1.71l-.57-1.23a3.88,3.88,0,0,0-.43-.77,1.07,1.07,0,0,0-.38-.32,1.6,1.6,0,0,0-.58-.08h-.42V18a3.89,3.89,0,0,0,0,.76.64.64,0,0,0,.19.34,1.32,1.32,0,0,0,.53.23Zm-.78-8.94v4h.72a2.51,2.51,0,0,0,.94-.15,1.44,1.44,0,0,0,.6-.44,1.55,1.55,0,0,0,.3-.65,4.36,4.36,0,0,0,.08-.81,2.06,2.06,0,0,0-.46-1.47,1.77,1.77,0,0,0-1.36-.49,7.82,7.82,0,0,0-.82,0" transform="translate(-2.09 -2.64)"/><path class="cls-2" d="M116.15,18c0,.17,0,.32,0,.47a2,2,0,0,0,.06.35.76.76,0,0,0,.13.23.69.69,0,0,0,.22.16,2.17,2.17,0,0,0,.36.12v.47h-3.78v-.47a2.41,2.41,0,0,0,.42-.16.54.54,0,0,0,.23-.22,1,1,0,0,0,.1-.38c0-.16,0-.34,0-.57V11.83a4.71,4.71,0,0,0,0-.57,1.12,1.12,0,0,0-.09-.37.76.76,0,0,0-.23-.24,2.23,2.23,0,0,0-.43-.16V10h3.77v.48a1.49,1.49,0,0,0-.44.17.6.6,0,0,0-.21.21,1,1,0,0,0-.1.34c0,.2,0,.4,0,.6Z" transform="translate(-2.09 -2.64)"/><path class="cls-2" d="M120.32,19.82v-.47a2,2,0,0,0,.48-.13.55.55,0,0,0,.26-.24,1,1,0,0,0,.11-.38c0-.15,0-.35,0-.57V10.86h-.58a1.82,1.82,0,0,0-.66.1,1,1,0,0,0-.4.32,1.76,1.76,0,0,0-.29.58c-.08.24-.15.47-.2.68h-1V10h8.45v2.52h-1c-.09-.32-.16-.57-.22-.72a2.2,2.2,0,0,0-.17-.39,1.89,1.89,0,0,0-.2-.27.81.81,0,0,0-.24-.17,1,1,0,0,0-.3-.1l-.48,0h-.51V18a4.21,4.21,0,0,0,0,.57.89.89,0,0,0,.08.32.62.62,0,0,0,.14.19.74.74,0,0,0,.23.14,1.7,1.7,0,0,0,.39.09v.48Z" transform="translate(-2.09 -2.64)"/><path class="cls-2" d="M132.47,16.05v2a5.43,5.43,0,0,0,0,.57.89.89,0,0,0,.08.32.62.62,0,0,0,.14.19,1.09,1.09,0,0,0,.23.14,1.79,1.79,0,0,0,.4.09v.48h-4v-.48a1.81,1.81,0,0,0,.47-.13.51.51,0,0,0,.27-.23.94.94,0,0,0,.11-.38,5.62,5.62,0,0,0,0-.58v-2L128.3,12c-.17-.35-.3-.61-.4-.78a2.36,2.36,0,0,0-.28-.42.79.79,0,0,0-.22-.19.89.89,0,0,0-.28-.07V10H131v.48c-.37,0-.56.23-.56.54a1.71,1.71,0,0,0,.09.45c.06.17.16.4.29.69l1.22,2.7,1.31-2.64a3.81,3.81,0,0,0,.27-.66,1.82,1.82,0,0,0,.08-.52.59.59,0,0,0-.15-.4.57.57,0,0,0-.41-.16V10H136v.48a.91.91,0,0,0-.31.12,1,1,0,0,0-.28.23,4.41,4.41,0,0,0-.36.49,8.88,8.88,0,0,0-.48.84Z" transform="translate(-2.09 -2.64)"/><path class="cls-3" d="M44.89,27.81l.21-.26a2.15,2.15,0,0,0,1.61.67c.68,0,1.14-.38,1.14-.89h0c0-.48-.25-.76-1.27-.95s-1.52-.58-1.52-1.27h0a1.3,1.3,0,0,1,1.45-1.18,2.25,2.25,0,0,1,1.54.55l-.21.26a2,2,0,0,0-1.35-.51c-.66,0-1.09.38-1.09.85h0c0,.48.24.76,1.31,1s1.47.58,1.47,1.24h0c0,.73-.62,1.23-1.49,1.23a2.56,2.56,0,0,1-1.81-.72" transform="translate(-2.09 -2.64)"/><polygon class="cls-3" points="47.2 21.33 50.39 21.33 50.39 21.64 47.53 21.64 47.53 23.4 50.1 23.4 50.1 23.71 47.53 23.71 47.53 25.51 50.43 25.51 50.43 25.82 47.2 25.82 47.2 21.33"/><path class="cls-3" d="M53.39,26.23v0a2.25,2.25,0,0,1,2.24-2.32,2.39,2.39,0,0,1,1.75.72l-.24.24a2.07,2.07,0,0,0-1.52-.66,1.92,1.92,0,0,0-1.89,2h0a1.94,1.94,0,0,0,1.89,2,2.07,2.07,0,0,0,1.55-.7l.23.21a2.44,2.44,0,0,1-1.79.79,2.23,2.23,0,0,1-2.23-2.31" transform="translate(-2.09 -2.64)"/><path class="cls-3" d="M58.25,26.59V24h.33v2.59a1.46,1.46,0,0,0,1.52,1.67,1.44,1.44,0,0,0,1.5-1.64V24h.33v2.58a1.77,1.77,0,0,1-1.84,2,1.75,1.75,0,0,1-1.84-1.94" transform="translate(-2.09 -2.64)"/><path class="cls-3" d="M63.19,24h1.89a1.71,1.71,0,0,1,1.26.44,1.18,1.18,0,0,1,.35.83v0c0,.76-.57,1.18-1.32,1.28l1.48,1.92h-.42L65,26.6H63.53v1.86h-.34ZM65,26.3c.76,0,1.31-.38,1.31-1h0c0-.61-.47-1-1.29-1H63.53v2Z" transform="translate(-2.09 -2.64)"/><rect class="cls-3" x="65.79" y="21.33" width="0.33" height="4.49"/><polygon class="cls-3" points="68.75 21.64 67.18 21.64 67.18 21.33 70.64 21.33 70.64 21.64 69.08 21.64 69.08 25.82 68.75 25.82 68.75 21.64"/><polygon class="cls-3" points="73.12 24.04 71.2 21.33 71.61 21.33 73.3 23.74 74.98 21.33 75.38 21.33 73.46 24.04 73.46 25.82 73.12 25.82 73.12 24.04"/><path class="cls-3" d="M80,27.81l.21-.26a2.15,2.15,0,0,0,1.62.67c.67,0,1.13-.38,1.13-.89h0c0-.48-.25-.76-1.27-.95s-1.51-.58-1.51-1.27h0a1.3,1.3,0,0,1,1.44-1.18,2.25,2.25,0,0,1,1.54.55l-.21.26a2,2,0,0,0-1.34-.51c-.67,0-1.1.38-1.1.85h0c0,.48.24.76,1.31,1s1.47.58,1.47,1.24h0a1.31,1.31,0,0,1-1.48,1.23A2.53,2.53,0,0,1,80,27.81" transform="translate(-2.09 -2.64)"/><path class="cls-3" d="M84.17,26.23v0a2.26,2.26,0,0,1,2.28-2.32A2.23,2.23,0,0,1,88.7,26.2h0a2.26,2.26,0,1,1-4.52,0m4.17,0v0a1.94,1.94,0,0,0-1.92-2,1.92,1.92,0,0,0-1.9,2h0a2,2,0,0,0,1.92,2,1.91,1.91,0,0,0,1.89-2" transform="translate(-2.09 -2.64)"/><polygon class="cls-3" points="87.73 21.33 88.07 21.33 88.07 25.51 90.7 25.51 90.7 25.82 87.73 25.82 87.73 21.33"/><path class="cls-3" d="M93.6,26.59V24h.33v2.59a1.46,1.46,0,0,0,1.52,1.67c.9,0,1.49-.55,1.49-1.64V24h.33v2.58a1.76,1.76,0,0,1-1.84,2,1.74,1.74,0,0,1-1.83-1.94" transform="translate(-2.09 -2.64)"/><polygon class="cls-3" points="97.7 21.64 96.13 21.64 96.13 21.33 99.6 21.33 99.6 21.64 98.03 21.64 98.03 25.82 97.7 25.82 97.7 21.64"/><rect class="cls-3" x="100.66" y="21.33" width="0.33" height="4.49"/><path class="cls-3" d="M104.26,26.23v0a2.26,2.26,0,1,1,4.52,0h0a2.26,2.26,0,1,1-4.52,0m4.17,0v0a1.94,1.94,0,0,0-1.92-2,1.92,1.92,0,0,0-1.9,2h0a2,2,0,0,0,1.92,2,1.93,1.93,0,0,0,1.91-2" transform="translate(-2.09 -2.64)"/><polygon class="cls-3" points="107.82 21.33 108.14 21.33 111.23 25.23 111.23 21.33 111.55 21.33 111.55 25.82 111.3 25.82 108.14 21.83 108.14 25.82 107.82 25.82 107.82 21.33"/><path class="cls-3" d="M114.69,27.81l.22-.26a2.13,2.13,0,0,0,1.61.67c.67,0,1.14-.38,1.14-.89h0c0-.48-.25-.76-1.28-.95s-1.51-.58-1.51-1.27h0a1.3,1.3,0,0,1,1.44-1.18,2.25,2.25,0,0,1,1.54.55l-.21.26a2,2,0,0,0-1.34-.51c-.67,0-1.1.38-1.1.85h0c0,.48.25.76,1.31,1s1.48.58,1.48,1.24h0a1.32,1.32,0,0,1-1.49,1.23,2.53,2.53,0,0,1-1.81-.72" transform="translate(-2.09 -2.64)"/><path class="cls-3" d="M2.92,10.28s9-5.19,20.55-.06A17.51,17.51,0,0,1,13.34,29S.86,23.64,2.91,10.27" transform="translate(-2.09 -2.64)"/><g class="cls-4"><rect class="cls-5" y="4.96" width="22.15" height="21.76"/></g><polygon class="cls-2" points="11.32 0 11.77 1.38 13.22 1.38 12.04 2.24 12.49 3.62 11.32 2.77 10.14 3.62 10.59 2.24 9.41 1.38 10.87 1.38 11.32 0"/><polygon class="cls-2" points="16.11 1.35 16.41 2.28 17.38 2.28 16.6 2.85 16.89 3.77 16.11 3.2 15.32 3.77 15.62 2.85 14.84 2.28 15.81 2.28 16.11 1.35"/><polygon class="cls-2" points="20.75 2.69 21.05 3.61 22.02 3.61 21.23 4.18 21.53 5.11 20.75 4.54 19.96 5.11 20.26 4.18 19.48 3.61 20.45 3.61 20.75 2.69"/><polygon class="cls-2" points="1.42 2.69 1.72 3.61 2.69 3.61 1.91 4.18 2.21 5.11 1.42 4.54 0.64 5.11 0.94 4.18 0.15 3.61 1.12 3.61 1.42 2.69"/><polygon class="cls-2" points="6.06 1.35 6.36 2.28 7.33 2.28 6.55 2.85 6.85 3.77 6.06 3.2 5.28 3.77 5.57 2.85 4.79 2.28 5.76 2.28 6.06 1.35"/><g class="cls-6"><rect class="cls-7" x="8.42" y="8.16" width="5.38" height="2.72"/></g><g class="cls-8"><rect class="cls-9" x="8.45" y="7.24" width="5.3" height="3.06"/></g><g class="cls-10"><rect class="cls-11" x="8.16" y="8.52" width="0.51" height="0.51"/></g><g class="cls-12"><rect class="cls-13" x="13.5" y="8.52" width="0.51" height="0.51"/></g><g class="cls-14"><rect class="cls-15" x="10.86" y="6.76" width="0.51" height="0.51"/></g><g class="cls-16"><rect class="cls-17" x="9.62" y="9.87" width="0.4" height="0.4"/></g><g class="cls-18"><rect class="cls-19" x="12.2" y="9.87" width="0.4" height="0.4"/></g><g class="cls-20"><rect class="cls-21" x="10.84" y="9.86" width="0.55" height="0.55"/></g><g class="cls-22"><rect class="cls-23" x="10.6" y="9.08" width="1" height="1.11"/></g><g class="cls-24"><rect class="cls-25" x="4.31" y="10.02" width="13.55" height="13.5"/></g></svg>